<svg id="Layer_1" data-name="Layer 1" xmlns="http://www.w3.org/2000/svg" viewBox="0 0 1440 367.51"><defs><style>.cls-1,.cls-2{fill:#fff;}.cls-2{fill-rule:evenodd;}</style></defs><title>erocery</title><g id="Layer_1-2" data-name="Layer_1"><g id="_1055786744" data-name=" 1055786744"><path class="cls-1" d="M481.35,183.7q2,15.7,10.47,23.41t24.88,7.7A86.6,86.6,0,0,0,539.79,212a188.76,188.76,0,0,0,21.11-7.37,35.88,35.88,0,0,1,7,15.88,104.38,104.38,0,0,1,1.8,19.81,87.32,87.32,0,0,1-12.93,4.74q-7.37,2.13-15.22,3.6T525.87,251a135.86,135.86,0,0,1-14.07.81q-20,0-34.21-4.91A62.88,62.88,0,0,1,454,233,54.57,54.57,0,0,1,440.27,211a88.3,88.3,0,0,1-4.42-28.64,116.17,116.17,0,0,1,6.88-39.28,112.94,112.94,0,0,1,19.48-34.54A96.93,96.93,0,0,1,493,84q18.16-9.33,40.75-9.33a74.47,74.47,0,0,1,20.13,2.61,46.16,46.16,0,0,1,16.2,8,38.59,38.59,0,0,1,10.8,13.25,40.66,40.66,0,0,1,3.93,18.33q0,14.75-6.88,25.54a61.21,61.21,0,0,1-18.32,18.33,108,108,0,0,1-26,12.27,182.37,182.37,0,0,1-30.28,7l-21.94,3.6ZM500,150.31a98.68,98.68,0,0,0,20.29-5.07,46.87,46.87,0,0,0,12.45-6.88,19.1,19.1,0,0,0,7.85-15.55,13.4,13.4,0,0,0-4.09-10.14q-4.1-3.93-11-3.93A32.49,32.49,0,0,0,510,112.51a41.34,41.34,0,0,0-12.27,10,64.85,64.85,0,0,0-9,14.24,85.4,85.4,0,0,0-5.73,16.2l17-2.61Zm104.4,1q3.6-20.62,5.4-36.49a237.29,237.29,0,0,0,1.8-24.72V84a48.7,48.7,0,0,0-.33-5.4,119.55,119.55,0,0,1,21.61-2q4.9,0,9.82.48c3.27.33,6.77.82,10.47,1.48.44,1.74.87,3.82,1.32,6.21a66.5,66.5,0,0,1,.65,10.8q0,2.94-.16,5.9c-.1,2-.38,4.36-.81,7.2A72.07,72.07,0,0,1,673.33,86.8a53.47,53.47,0,0,1,13.43-7.37A45.61,45.61,0,0,1,703,76.65a37.46,37.46,0,0,1,11.78,1.64,10.15,10.15,0,0,1,.33,2.61v2.95a83.25,83.25,0,0,1-2.29,19,57.06,57.06,0,0,1-6.21,16.37c-1.31-.22-2.73-.43-4.26-.66a42.9,42.9,0,0,0-5.89-.32q-13.42,0-22.1,4.58a38.56,38.56,0,0,0-14.24,12.93,69.66,69.66,0,0,0-8.84,20.13Q648,167.64,645.34,182l-12.11,65.8a156.4,156.4,0,0,1-23.9,2,129.68,129.68,0,0,1-22.59-2l17.69-96.57Zm164,100.5q-33.72,0-49.59-17.68t-15.88-48.45a137.66,137.66,0,0,1,5.89-39.45,113.82,113.82,0,0,1,17.69-35.68,92.82,92.82,0,0,1,29.62-25.87q17.83-10,41.74-10,34,0,49.92,18t15.88,48.78a141.47,141.47,0,0,1-5.73,39.93,109.29,109.29,0,0,1-17.51,35.36,89.69,89.69,0,0,1-29.79,25.37q-18,9.65-42.23,9.65Zm4.26-35.35q12.43,0,21-7.86A61.15,61.15,0,0,0,807.5,189.1a99.12,99.12,0,0,0,7.7-24.55,135,135,0,0,0,2.29-23.41q0-30.12-24.55-30.11-12.44,0-20.63,8.18a65.66,65.66,0,0,0-13.43,20,100.53,100.53,0,0,0-7.36,24.88,146.66,146.66,0,0,0-2.13,23.24q0,29.13,23.24,29.14Zm210.13-8.84a56.29,56.29,0,0,1,5.9,14.07q2.28,8.18,2.28,21.61a93.19,93.19,0,0,1-22.25,6.54,156.65,156.65,0,0,1-25.87,2q-37.32,0-54.67-18.17T870.81,183.7a123.89,123.89,0,0,1,6.39-38.79,110.84,110.84,0,0,1,18.82-35,99.09,99.09,0,0,1,30.61-25.37q18.17-9.81,42.07-9.82a140,140,0,0,1,21.61,1.64,99.65,99.65,0,0,1,20,5.24,82.06,82.06,0,0,1-2.95,18.17,68.19,68.19,0,0,1-8.18,18.5,94.05,94.05,0,0,0-14.24-4.59A68.81,68.81,0,0,0,969.35,112q-12.76,0-22.25,5.73a51,51,0,0,0-15.88,15,67,67,0,0,0-9.5,21.45,100.59,100.59,0,0,0-3.12,25.21q0,18,9.17,26.51T951,214.47a77.18,77.18,0,0,0,14.25-1.31,94.13,94.13,0,0,0,17.51-5.57Zm69.7-23.9q2,15.7,10.47,23.41t24.88,7.7A86.52,86.52,0,0,0,1110.9,212a189.58,189.58,0,0,0,21.12-7.37,35.88,35.88,0,0,1,7,15.88,105.2,105.2,0,0,1,1.8,19.81,87.32,87.32,0,0,1-12.93,4.74q-7.37,2.13-15.23,3.6T1097,251a135.86,135.86,0,0,1-14.07.81q-20,0-34.21-4.91A62.8,62.8,0,0,1,1025.14,233,54.57,54.57,0,0,1,1011.39,211a88,88,0,0,1-4.42-28.64,116.4,116.4,0,0,1,6.87-39.28,113.17,113.17,0,0,1,19.49-34.54A96.93,96.93,0,0,1,1064.1,84q18.17-9.33,40.75-9.33A74.47,74.47,0,0,1,1125,77.3a46.16,46.16,0,0,1,16.2,8A38.59,38.59,0,0,1,1152,98.57a40.65,40.65,0,0,1,3.92,18.33q0,14.75-6.87,25.54a61.13,61.13,0,0,1-18.33,18.33,107.76,107.76,0,0,1-26,12.27,182.37,182.37,0,0,1-30.28,7l-21.94,3.6Zm18.66-33.39a98.68,98.68,0,0,0,20.29-5.07,47,47,0,0,0,12.44-6.88,19.07,19.07,0,0,0,7.86-15.55,13.43,13.43,0,0,0-4.09-10.14q-4.1-3.93-11-3.93a32.48,32.48,0,0,0-15.55,3.77,41.34,41.34,0,0,0-12.27,10,64.48,64.48,0,0,0-9,14.24,84.71,84.71,0,0,0-5.73,16.2l17-2.61Zm104.39,1q3.62-20.62,5.4-36.49a234.53,234.53,0,0,0,1.8-24.72V84a46.39,46.39,0,0,0-.33-5.4,119.55,119.55,0,0,1,21.61-2c3.28,0,6.55.16,9.83.48s6.77.82,10.47,1.48c.44,1.74.87,3.82,1.32,6.21a66.5,66.5,0,0,1,.65,10.8q0,2.94-.16,5.9c-.1,2-.38,4.36-.81,7.2a71.12,71.12,0,0,1,8.18-11.63,70.08,70.08,0,0,1,11-10.31,53.29,53.29,0,0,1,13.43-7.37,45.61,45.61,0,0,1,16.2-2.78,37.46,37.46,0,0,1,11.78,1.64,10.61,10.61,0,0,1,.33,2.61v2.95a83.25,83.25,0,0,1-2.29,19,57.06,57.06,0,0,1-6.21,16.37c-1.32-.22-2.73-.43-4.26-.66a43,43,0,0,0-5.9-.32q-13.41,0-22.09,4.58a38.49,38.49,0,0,0-14.24,12.93,69.94,69.94,0,0,0-8.85,20.13q-3.27,11.77-5.89,26.18l-12.12,65.8a156.17,156.17,0,0,1-23.89,2,129.59,129.59,0,0,1-22.59-2l17.68-96.57Zm106.36-72.67a156.1,156.1,0,0,1,25.21-2,135.27,135.27,0,0,1,22.91,2l8.84,148q12.78-26.84,21.44-46.65t14.57-34q5.89-14.25,9-23.74t4.75-16a68.51,68.51,0,0,0,2-11c.22-2.94.32-5.72.32-8.34a27.1,27.1,0,0,0-.32-4.91c-.23-1.09-.44-2.18-.66-3.27q5.56-1,11.78-1.48t12.77-.48a145.52,145.52,0,0,1,24.56,2,21.89,21.89,0,0,1,1,6.87,57.75,57.75,0,0,1-1.47,12.27q-1.47,6.72-3.6,13.42t-4.58,12.93l-4.42,11.13q-8.52,20.3-23.74,51.89t-39.12,80q-10.15,20.29-20,32.41t-20,18.33a58.44,58.44,0,0,1-20.3,8,117.72,117.72,0,0,1-20.62,1.8,73.87,73.87,0,0,1-12.93-1,112.84,112.84,0,0,1-12-2.95,115.51,115.51,0,0,1,2.61-18,59.1,59.1,0,0,1,6.54-16.37,33.94,33.94,0,0,0,7,2.13,36.34,36.34,0,0,0,7,.82,61.34,61.34,0,0,0,9.17-.82,28.53,28.53,0,0,0,11.29-4.91q6.06-4.09,12.77-12.44t13.59-23.08l1.64-3.6a55.73,55.73,0,0,1-7.86.81c-2.84.11-5.78.16-8.84.16h-7.53a38.32,38.32,0,0,1-7.52-.66L1281.89,78.59Z"/><path class="cls-2" d="M348.8,310.72a28.49,28.49,0,1,0,7.49,56.48c14.09-2,26.55-15.22,24.08-32.22a28.3,28.3,0,0,0-31.57-24.25ZM6.93.8c-7.45,2.5-8.22,10-5.41,14.65,3.4,5.67,11.12,4.61,19.22,4.61,16,0,25.13,7.28,32.44,15s9.94,21.8,13.3,34.19L96.86,181.49c6.69,24.83,13.12,50.14,20.28,74.77,6.25,21.43,25.89,40.22,50.89,43.42,10.31,1.33,78.64.47,94.93.47H358c16.4,0,26.25-2.26,38-9.72a61.44,61.44,0,0,0,22.54-25c2.4-4.94,5.89-12.44,2.4-18-3.2-5.13-11.68-6-16-.76-3,3.6-3.48,16.9-20.13,27.38-12.67,8-24.84,6.22-41.32,6.22H201c-15.31,0-30.67,1.91-43.2-4.36C148.3,271.17,139.31,262,136,250.13,122.34,200.38,109.09,150.85,95.65,101c-3.37-12.53-6.86-24.73-10.14-37.38C79.24,39.44,74.26,18.89,47.79,6.26A60.24,60.24,0,0,0,29.6.69C24.88.05,10.91-.54,6.93.79ZM116.51,68c-8.8,2.17-14.34,9.31-11.62,20.21,6.27,25,14.52,53.22,21.26,78.46l21.18,78c2.55,9.64,7.26,15.27,14.18,19.34,8.84,5.21,17.71,3.88,29,3.88H356.85c11.59,0,18.44-.86,25.51-7.36,7.62-7,7.94-10.27,11.24-22.37q2.32-8.57,4.67-17.09l-.48,1.73H191.2L172.13,149H172l0-.24-6-23.37.17,0L163,112.48H382.54l-9.1,36.24L209.86,149l9.63,37.27H407.8Q415,160,421.94,133.75c2.46-9.31,13.7-45.93,12.92-52.78-1.23-10.73-9.84-13.48-19.45-13.45h-266c-7.09,0-27.45-.85-32.87.49Zm66.65,242.76a28.49,28.49,0,1,0,32,23.61,28.43,28.43,0,0,0-32-23.61Z"/><path class="cls-1" d="M533,329.29a25.56,25.56,0,0,1-3,4.55,24.84,24.84,0,0,1-4.3,4.2,23.51,23.51,0,0,1-5.47,3.13,17.25,17.25,0,0,1-6.5,1.23q-6.76,0-10.19-4.46t-3.43-12.14a45.13,45.13,0,0,1,2.26-14.17,37.36,37.36,0,0,1,6.66-12.3,32.78,32.78,0,0,1,11-8.65,33.74,33.74,0,0,1,15.25-3.27,52.62,52.62,0,0,1,7.53.56,34,34,0,0,1,6.7,1.59q-2.34,12.9-4.55,25.6t-4.55,25.6a34.53,34.53,0,0,1-4.1,11.78,25.82,25.82,0,0,1-7.06,7.83,28.18,28.18,0,0,1-9.52,4.41,45.58,45.58,0,0,1-11.47,1.39,40,40,0,0,1-7-.62,28.91,28.91,0,0,1-5.74-1.53,17,17,0,0,1,2.25-8.2c1.37.34,3,.7,4.82,1.08a30.67,30.67,0,0,0,6.05.56,32.75,32.75,0,0,0,8.19-.92,17.14,17.14,0,0,0,6.35-3.07,17.6,17.6,0,0,0,4.66-5.63,32.72,32.72,0,0,0,3-8.71l2.15-9.82Zm5.32-32.77a22.3,22.3,0,0,0-5.52-.62,18.21,18.21,0,0,0-9.21,2.35,22.28,22.28,0,0,0-7,6.3,31.15,31.15,0,0,0-4.46,8.91,33.16,33.16,0,0,0-1.59,10.18c0,3.28.62,5.83,1.84,7.63A5.94,5.94,0,0,0,517.6,334a10.58,10.58,0,0,0,6.2-2.05,20.92,20.92,0,0,0,5.32-5.63,39.88,39.88,0,0,0,4.21-8.45,70.55,70.55,0,0,0,2.92-10.49l2-10.85Zm13.16,44.65q1.14-6.45,2.51-13.62t2.57-13.87q1.17-6.71,2-12.29a63.55,63.55,0,0,0,.81-8.86c0-.89,0-1.59-.05-2.1a18.22,18.22,0,0,0-.25-1.9,17.78,17.78,0,0,1,2.45-.25c.89,0,1.71,0,2.46,0s1.45,0,2.31,0a15.13,15.13,0,0,1,2.3.25,11.69,11.69,0,0,1,.31,1.79A26.68,26.68,0,0,1,569,293a34.88,34.88,0,0,1-.31,4.61,31.28,31.28,0,0,1,2.92-3.48,22.64,22.64,0,0,1,3.54-3,16.19,16.19,0,0,1,4.3-2.09,16.82,16.82,0,0,1,5.22-.78,14.53,14.53,0,0,1,1.79.11,7.21,7.21,0,0,1,1.59.31,26.79,26.79,0,0,1-.47,4.65,12.83,12.83,0,0,1-1.59,4.46,11.33,11.33,0,0,0-1.28-.2,16.51,16.51,0,0,0-1.69-.11,14,14,0,0,0-11.11,4.92q-4.26,4.91-6.09,15.15l-4.2,23.55a30.45,30.45,0,0,1-4.21.3h-2.56l-3.38-.3Zm52.49,1.23q-9.53,0-14.34-5.28t-4.81-14.89a44.1,44.1,0,0,1,1.73-11.83,36.09,36.09,0,0,1,5.38-11.27,30.67,30.67,0,0,1,9.12-8.39,24.35,24.35,0,0,1,13-3.33q9.62,0,14.44,5.33t4.82,14.95a44,44,0,0,1-1.74,11.88,36.43,36.43,0,0,1-5.33,11.21,29.28,29.28,0,0,1-9.11,8.34,25.31,25.31,0,0,1-13.11,3.28Zm1-8.09a13.16,13.16,0,0,0,8.24-2.62,20.07,20.07,0,0,0,5.58-6.61,33.33,33.33,0,0,0,3.18-8.65,41,41,0,0,0,1-8.75c0-3.9-.87-6.86-2.62-8.91A9.21,9.21,0,0,0,613,295.7a12.84,12.84,0,0,0-8.19,2.66,20.92,20.92,0,0,0-5.53,6.66,32.1,32.1,0,0,0-3.13,8.65,43.05,43.05,0,0,0-1,8.65c0,3.9.84,6.86,2.51,8.91s4.11,3.07,7.32,3.07ZM671,332a12.09,12.09,0,0,1,1.28,3.43,20.08,20.08,0,0,1,.47,4.55,30.91,30.91,0,0,1-6.86,1.84,45.73,45.73,0,0,1-7.06.62q-11.26,0-16.6-5.53t-5.32-15.46a39.16,39.16,0,0,1,2-12.24,34,34,0,0,1,5.94-11,30.32,30.32,0,0,1,9.62-7.83,27.81,27.81,0,0,1,13.06-3,32.08,32.08,0,0,1,6.45.62,38,38,0,0,1,5.32,1.43,17.29,17.29,0,0,1-.81,4.24,16.59,16.59,0,0,1-1.84,4.05,31.14,31.14,0,0,0-4.46-1.39,22.57,22.57,0,0,0-5.07-.56,16.65,16.65,0,0,0-8.71,2.2,19.69,19.69,0,0,0-6.14,5.74,24.91,24.91,0,0,0-3.63,7.94,33.73,33.73,0,0,0-1.18,8.7q0,7,3.44,10.29c2.28,2.23,5.44,3.33,9.47,3.33a29.85,29.85,0,0,0,5.27-.47A26,26,0,0,0,671,332ZM689,320.28q.3,6.86,3.48,10.34t9.82,3.49a30.34,30.34,0,0,0,7.79-1,63.47,63.47,0,0,0,6.66-2.1,11.32,11.32,0,0,1,1.33,3.69,22.36,22.36,0,0,1,.41,4.3,25.07,25.07,0,0,1-3.73,1.33c-1.48.41-3,.77-4.61,1.08s-3.23.55-4.86.72a44.06,44.06,0,0,1-4.51.26,28.65,28.65,0,0,1-10.19-1.59,17.62,17.62,0,0,1-6.75-4.41,16.8,16.8,0,0,1-3.79-6.66,28.16,28.16,0,0,1-1.18-8.34,37.65,37.65,0,0,1,2.1-12.34,34.89,34.89,0,0,1,6-10.9,31.31,31.31,0,0,1,9.42-7.78,25.25,25.25,0,0,1,12.24-3q6.76,0,10.7,3.33a11,11,0,0,1,3.94,8.86,13.83,13.83,0,0,1-2.2,7.83,18.79,18.79,0,0,1-6.09,5.69,38.34,38.34,0,0,1-9.17,3.9,86.22,86.22,0,0,1-11.52,2.45l-5.32.82Zm6.44-8.6a56.93,56.93,0,0,0,8.65-2.1,23.5,23.5,0,0,0,5.48-2.56,8.59,8.59,0,0,0,2.87-2.92,7,7,0,0,0,.81-3.38,5,5,0,0,0-1.64-3.84,6.77,6.77,0,0,0-4.71-1.48,12.63,12.63,0,0,0-6.05,1.48,18.63,18.63,0,0,0-5,3.89,24,24,0,0,0-3.74,5.53,31.43,31.43,0,0,0-2.35,6.4l5.63-1Zm28.93,29.49q1.13-6.45,2.51-13.62t2.56-13.87q1.18-6.71,2-12.29a63.83,63.83,0,0,0,.82-8.86c0-.89,0-1.59,0-2.1a18.62,18.62,0,0,0-.26-1.9,17.93,17.93,0,0,1,2.46-.25c.89,0,1.7,0,2.45,0s1.45,0,2.31,0a15.27,15.27,0,0,1,2.31.25,13,13,0,0,1,.31,1.79c.06.65.1,1.56.1,2.71a34.89,34.89,0,0,1-.3,4.61,31.28,31.28,0,0,1,2.92-3.48,22.56,22.56,0,0,1,3.53-3,16.49,16.49,0,0,1,4.3-2.09,16.87,16.87,0,0,1,5.22-.78,14.41,14.41,0,0,1,1.79.11,7,7,0,0,1,1.59.31,27.7,27.7,0,0,1-.46,4.65,12.83,12.83,0,0,1-1.59,4.46,11.73,11.73,0,0,0-1.28-.2,16.89,16.89,0,0,0-1.7-.11,14,14,0,0,0-11.11,4.92q-4.25,4.91-6.08,15.15l-4.21,23.55a30.31,30.31,0,0,1-4.2.3h-2.56l-3.38-.3ZM775.25,336q3.27-7.07,5.84-12.9t4.66-10.75q2.09-4.92,3.79-9c1.12-2.73,2.17-5.33,3.12-7.78a19.76,19.76,0,0,0,.92-3.18,13.62,13.62,0,0,0,.31-2.35,5.87,5.87,0,0,0,0-.82,3.15,3.15,0,0,1-.06-.61,28.19,28.19,0,0,1,4.3-.31h6.45a3.93,3.93,0,0,1,.11.82V290a15.8,15.8,0,0,1-1,5.33c-.68,1.92-1.43,3.82-2.26,5.74q-4.61,9.93-9.88,21.25t-11.82,25a64.72,64.72,0,0,1-5.53,9.73,28.85,28.85,0,0,1-5.27,5.74,14.82,14.82,0,0,1-5.27,2.76,22,22,0,0,1-5.74.72,23.62,23.62,0,0,1-7-1,21.13,21.13,0,0,1,.61-4.29,10,10,0,0,1,1.64-3.58,19.1,19.1,0,0,0,2.26.56,13.07,13.07,0,0,0,2.46.25,12,12,0,0,0,3.17-.46,8.34,8.34,0,0,0,3.43-2.21,26.1,26.1,0,0,0,3.85-5.12,75.12,75.12,0,0,0,4.51-9.21,15.84,15.84,0,0,1-1.74.1h-3.38a8.58,8.58,0,0,1-1.43-.1q-1.74-13.11-3.43-26.22t-3.43-26.31c1-.14,1.82-.24,2.62-.31s1.65-.1,2.61-.1,1.88,0,2.77.1,1.78.17,2.65.31l5.22,47.41Zm55.42-47.41c1-.14,1.88-.24,2.76-.31s1.82-.1,2.77-.1a30.44,30.44,0,0,1,5.32.41l4,40.75,16.38-40.75a23.34,23.34,0,0,1,2.45-.31c.89-.06,1.71-.1,2.46-.1s1.73,0,2.56.1,1.64.17,2.46.31l5,40.86,12.8-31a29.84,29.84,0,0,0,1.69-5.28,19.59,19.59,0,0,0,.47-3.63v-.92c.81-.14,1.65-.24,2.51-.31s1.75-.1,2.71-.1a32.69,32.69,0,0,1,5.63.41v.41a14.59,14.59,0,0,1-.87,4.77,60.19,60.19,0,0,1-2.71,6.3L880,341.18c-.89.14-1.82.24-2.81.3s-2,.11-2.93.11c-.81,0-1.67,0-2.56-.11a21,21,0,0,1-2.45-.3l-5.13-37.79-15.56,37.79c-.89.14-1.82.24-2.82.3s-1.93.11-2.82.11-1.69,0-2.61-.11a21.35,21.35,0,0,1-2.51-.3l-7.17-52.53Zm80.75,8.09h-6.36a30.51,30.51,0,0,1,.26-4,18.23,18.23,0,0,1,1.08-4.1h16.38l-9.21,52.53a18.82,18.82,0,0,1-2.62.25c-1,0-1.86,0-2.62,0s-1.53,0-2.35,0a17.44,17.44,0,0,1-2.35-.25l7.79-44.44Zm-.11-18.94a30,30,0,0,1,.51-5.64,55.64,55.64,0,0,1,1.33-5.43c1-.14,2-.24,3.07-.3s2-.11,2.87-.11,1.76,0,2.82.11,2,.16,2.92.3a36.86,36.86,0,0,1-.61,5.69,48.6,48.6,0,0,1-1.34,5.38,28.47,28.47,0,0,1-3.07.25c-1.09,0-2,.05-2.87.05s-1.67,0-2.76-.05a22.57,22.57,0,0,1-2.87-.25Zm23.51,18.94h-8.3a25.06,25.06,0,0,1,.31-3.94,23.16,23.16,0,0,1,1.12-4.15h8.2c.34-1.78.65-3.58.92-5.43a38.21,38.21,0,0,0,.41-5.74v-1.64a18.26,18.26,0,0,1,4.92-1.54,28.6,28.6,0,0,1,4.91-.51c.06.62.12,1.23.16,1.85s0,1.26,0,1.94a48,48,0,0,1-.81,7.89l-.62,3.18h13.22a26.66,26.66,0,0,1-.31,4.15,22.76,22.76,0,0,1-1,3.94H944.86l-4,22.22c-.34,1.57-.64,3.19-.92,4.86a28.93,28.93,0,0,0-.41,4.56c0,2,.53,3.46,1.59,4.24a6.9,6.9,0,0,0,4.24,1.18,18.19,18.19,0,0,0,3.18-.26c1-.17,1.91-.39,2.87-.66a19.33,19.33,0,0,1,.51,2.25,17,17,0,0,1,.2,2.66v1.48a12.63,12.63,0,0,1-.11,1.59,28.26,28.26,0,0,1-3.48.77,26.86,26.86,0,0,1-4.61.36,36.73,36.73,0,0,1-6-.46,12.1,12.1,0,0,1-4.66-1.74,8.53,8.53,0,0,1-3-3.48,13.25,13.25,0,0,1-1.08-5.78,26,26,0,0,1,.36-4.16c.25-1.47.5-3,.78-4.55l4.51-25.08Zm31.28-9.52c.68-3.82,1.23-7.12,1.64-9.88a49.79,49.79,0,0,0,.62-7.42c0-.82,0-1.47-.05-1.95s-.09-1.09-.16-1.84a23.75,23.75,0,0,1,2.76-.31c1.09-.06,2-.1,2.76-.1s1.45,0,2.31.1a19.65,19.65,0,0,1,2.31.31,23.54,23.54,0,0,1,.31,3.79c0,.75-.06,1.65-.16,2.71s-.22,2.17-.36,3.32-.31,2.36-.51,3.58-.41,2.4-.61,3.49q-.72,3.48-1.34,6.91c-.41,2.29-.81,4.6-1.23,6.91a26.63,26.63,0,0,1,7.37-6.55A19.23,19.23,0,0,1,992,287.51q6.24,0,9.78,3.27c2.35,2.18,3.54,5.56,3.54,10.13a29.83,29.83,0,0,1-.2,3.38c-.14,1.23-.31,2.46-.51,3.68l-5.83,33.18a18.66,18.66,0,0,1-2.62.25c-1,0-1.86.05-2.61.05s-1.59,0-2.51-.05a15.7,15.7,0,0,1-2.41-.25q1.44-8,2.77-15.77t2.76-15.76c.14-1,.28-2.05.41-3.08a19.94,19.94,0,0,0,.21-2.65q0-3.9-2.1-5.74a7.84,7.84,0,0,0-5.38-1.84,12.36,12.36,0,0,0-4.82,1,13,13,0,0,0-4.66,3.54,25.87,25.87,0,0,0-4,6.75,47.94,47.94,0,0,0-3,10.71q-1.12,5.85-2.09,11.47t-2,11.36a28.3,28.3,0,0,1-3,.25c-1,0-2,0-3,0l-1.84,0a15.41,15.41,0,0,1-2.36-.25l9.52-54Zm79.07,33.08q.32,6.86,3.49,10.34t9.82,3.49a30.34,30.34,0,0,0,7.79-1,63.47,63.47,0,0,0,6.66-2.1,11.55,11.55,0,0,1,1.33,3.69,23.19,23.19,0,0,1,.41,4.3,24.82,24.82,0,0,1-3.74,1.33c-1.47.41-3,.77-4.6,1.08s-3.23.55-4.86.72a44.21,44.21,0,0,1-4.51.26,28.65,28.65,0,0,1-10.19-1.59,17.55,17.55,0,0,1-6.75-4.41,16.8,16.8,0,0,1-3.79-6.66,28.16,28.16,0,0,1-1.18-8.34,37.65,37.65,0,0,1,2.1-12.34,35.07,35.07,0,0,1,6-10.9,31.35,31.35,0,0,1,9.43-7.78,25.25,25.25,0,0,1,12.24-3q6.77,0,10.7,3.33a11,11,0,0,1,3.94,8.86,13.83,13.83,0,0,1-2.2,7.83,18.89,18.89,0,0,1-6.09,5.69A38.34,38.34,0,0,1,1062,317a86.22,86.22,0,0,1-11.52,2.45l-5.32.82Zm6.45-8.6a56.93,56.93,0,0,0,8.65-2.1,23.5,23.5,0,0,0,5.48-2.56,8.59,8.59,0,0,0,2.87-2.92,7,7,0,0,0,.81-3.38,5,5,0,0,0-1.64-3.84,6.77,6.77,0,0,0-4.71-1.48,12.63,12.63,0,0,0-6,1.48,18.63,18.63,0,0,0-5,3.89,24,24,0,0,0-3.74,5.53,31.43,31.43,0,0,0-2.35,6.4l5.63-1Zm66.72-15.26a16.28,16.28,0,0,0-2.56-.41c-.89-.06-1.88-.11-3-.11a18,18,0,0,0-9.17,2.35,23.19,23.19,0,0,0-7,6.3,29.55,29.55,0,0,0-4.45,8.91,34,34,0,0,0-1.54,10.18c0,3.28.58,5.83,1.74,7.63a5.78,5.78,0,0,0,5.22,2.71,10.63,10.63,0,0,0,6.14-2.05,21.17,21.17,0,0,0,5.43-5.68,39.21,39.21,0,0,0,4.25-8.5,64.55,64.55,0,0,0,2.81-10.4l2-11Zm5.83,22.43q-1.12,6.15-1.79,10.54a52.81,52.81,0,0,0-.66,7.68c0,.89,0,1.59,0,2.1a15.73,15.73,0,0,0,.25,1.89,23.34,23.34,0,0,1-2.45.31c-.89.06-1.71.1-2.46.1s-1.43,0-2.26-.1-1.61-.17-2.35-.31c-.13-.75-.24-1.51-.3-2.31s-.11-1.75-.11-2.92a26.88,26.88,0,0,1,.25-3.07q.26-2,.57-3.48a27,27,0,0,1-7.21,8.75,22.14,22.14,0,0,1-5.44,3.13,17.24,17.24,0,0,1-6.5,1.22q-6.77,0-10.18-4.45t-3.43-12.14a45.41,45.41,0,0,1,2.25-14.17,37.73,37.73,0,0,1,6.66-12.3,32.88,32.88,0,0,1,11-8.65,33.78,33.78,0,0,1,15.26-3.27,50.5,50.5,0,0,1,7.42.56,34.65,34.65,0,0,1,6.61,1.59l-5.13,29.29Zm21.36-2.35a34.76,34.76,0,0,1-3.28-1.54,13,13,0,0,1-3.18-2.35,11.77,11.77,0,0,1-2.4-3.63,13,13,0,0,1-1-5.27,14.53,14.53,0,0,1,5.84-11.94,20.53,20.53,0,0,1,6.6-3.23,30.39,30.39,0,0,1,8.56-1.12,33.88,33.88,0,0,1,8,.92,27,27,0,0,1,5.94,2.05,25.39,25.39,0,0,1-3,7.67,32.63,32.63,0,0,0-4.82-1.69,24,24,0,0,0-6.56-.87A15.49,15.49,0,0,0,1149,297a5.49,5.49,0,0,0-2.92,5.32,5.79,5.79,0,0,0,1.38,3.94,13,13,0,0,0,5,3l2.25,1c1.3.61,2.65,1.26,4,1.94a17,17,0,0,1,3.79,2.51,12,12,0,0,1,2.76,3.59,11.23,11.23,0,0,1,1.08,5.17,18.07,18.07,0,0,1-1.84,8.45,16.38,16.38,0,0,1-5.07,5.83,22.62,22.62,0,0,1-7.48,3.43,35.66,35.66,0,0,1-9.17,1.13,45.42,45.42,0,0,1-8-.72,29.46,29.46,0,0,1-6.5-1.85,23.69,23.69,0,0,1,.77-4.3,15,15,0,0,1,1.69-3.88,30.85,30.85,0,0,0,6.25,1.79,37,37,0,0,0,6.66.67,24,24,0,0,0,4.82-.47,12.58,12.58,0,0,0,3.89-1.43,7.39,7.39,0,0,0,2.62-2.62,7.86,7.86,0,0,0,1-4.09,6,6,0,0,0-1.84-4.77,18.25,18.25,0,0,0-5.22-2.92l-3.27-1.33Zm36.71,3.79q.3,6.85,3.48,10.34t9.83,3.49a30.32,30.32,0,0,0,7.78-1,66,66,0,0,0,6.66-2.09,11.17,11.17,0,0,1,1.33,3.68,22.36,22.36,0,0,1,.41,4.3,25.07,25.07,0,0,1-3.73,1.33c-1.47.42-3,.78-4.61,1.08s-3.23.55-4.86.72a44.06,44.06,0,0,1-4.51.26,28.56,28.56,0,0,1-10.18-1.59,17.59,17.59,0,0,1-6.76-4.41,16.8,16.8,0,0,1-3.79-6.66,28.49,28.49,0,0,1-1.18-8.34,37.54,37.54,0,0,1,2.1-12.33,34.83,34.83,0,0,1,6-10.91,31.31,31.31,0,0,1,9.42-7.78,25.25,25.25,0,0,1,12.24-3q6.76,0,10.7,3.33a11,11,0,0,1,3.94,8.86,13.83,13.83,0,0,1-2.2,7.83,18.79,18.79,0,0,1-6.09,5.69,38.34,38.34,0,0,1-9.17,3.9,86.22,86.22,0,0,1-11.52,2.45l-5.32.82Zm6.44-8.6a56.93,56.93,0,0,0,8.65-2.1,23.5,23.5,0,0,0,5.48-2.56,8.59,8.59,0,0,0,2.87-2.92,7,7,0,0,0,.81-3.38,5,5,0,0,0-1.64-3.84,6.77,6.77,0,0,0-4.71-1.48,12.63,12.63,0,0,0-6.05,1.48,18.83,18.83,0,0,0-5,3.89,24,24,0,0,0-3.74,5.53,31.65,31.65,0,0,0-2.35,6.4l5.63-1Z"/></g></g></svg>