<svg id="Layer_1" data-name="Layer 1" xmlns="http://www.w3.org/2000/svg" viewBox="0 0 434.88 367.52"><defs><style>.cls-1{fill:#fff;fill-rule:evenodd;}</style></defs><title>erocery</title><path class="cls-1" d="M348.78,310.72a28.5,28.5,0,1,0,7.49,56.49c14.09-2,26.55-15.22,24.09-32.22a28.32,28.32,0,0,0-31.58-24.26ZM6.92.81c-7.46,2.5-8.23,10-5.41,14.65,3.4,5.67,11.11,4.61,19.21,4.61,16,0,25.13,7.28,32.45,15s9.94,21.8,13.29,34.18L96.84,181.5c6.69,24.83,13.12,50.14,20.29,74.77C123.37,277.7,143,296.48,168,299.69c10.32,1.33,78.64.47,94.94.47h95c16.41,0,26.25-2.26,38-9.72a61.51,61.51,0,0,0,22.54-25c2.39-4.94,5.89-12.44,2.39-18-3.2-5.14-11.68-6-16-.76-2.95,3.6-3.48,16.9-20.12,27.38-12.68,8-24.84,6.22-41.33,6.22H200.94c-15.31,0-30.67,1.91-43.2-4.36-9.45-4.73-18.45-13.88-21.72-25.77-13.69-49.75-27-99.28-40.39-149.13-3.36-12.53-6.86-24.74-10.14-37.38C79.22,39.45,74.25,18.9,47.78,6.27A60.42,60.42,0,0,0,29.59.7C24.86.06,10.9-.53,6.92.8ZM116.49,68c-8.8,2.17-14.33,9.31-11.61,20.21,6.27,25.05,14.51,53.21,21.26,78.46l21.17,78c2.56,9.64,7.27,15.26,14.18,19.34,8.84,5.21,17.72,3.88,29,3.88H356.83c11.59,0,18.44-.86,25.52-7.36,7.61-7,7.94-10.27,11.23-22.38q2.34-8.55,4.67-17.09l-.48,1.74H191.18L172.11,149H172l0-.24-6-23.37.17,0L163,112.48H382.53l-9.11,36.25L209.85,149l9.62,37.27H407.78Q415,160,421.93,133.76c2.45-9.31,13.7-45.93,12.91-52.79C433.61,70.25,425,67.5,415.39,67.53h-266c-7.08,0-27.45-.85-32.87.49Zm66.65,242.76a28.49,28.49,0,1,0,32,23.61,28.44,28.44,0,0,0-32-23.61Z"/></svg>