<svg xmlns="http://www.w3.org/2000/svg" width="44.541" height="40.719" viewBox="0 0 44.541 40.719">
  <g id="Group_79" data-name="Group 79" transform="translate(-10582.666 -1903)">
    <g id="Group_78" data-name="Group 78">
      <g id="Path_3" data-name="Path 3" transform="translate(11034.515 1846.263)" fill="#fff">
        <path d="M -422.4673461914063 90.29524993896484 C -423.5379943847656 90.29524993896484 -424.5234985351563 89.65824127197266 -424.919677734375 88.71014404296875 L -424.9211730957031 88.70656585693359 L -424.9226379394531 88.70296478271484 C -425.4500732421875 87.383544921875 -425.9787902832031 86.0400390625 -426.4900817871094 84.74078369140625 C -426.7639770507813 84.04474639892578 -427.0379028320313 83.34866333007813 -427.3128662109375 82.65305328369141 C -428.6794128417969 82.43486785888672 -430.0650939941406 82.22043609619141 -431.4080200195313 82.01261138916016 C -432.2614440917969 81.88055419921875 -433.1148376464844 81.74848175048828 -433.9678955078125 81.61483001708984 L -433.9729614257813 81.61404418945313 L -433.9779968261719 81.61314392089844 C -434.8842163085938 81.45207214355469 -435.6631774902344 81.00719451904297 -436.17138671875 80.36046600341797 C -436.8695983886719 79.48252105712891 -437.0805053710938 78.44438934326172 -437.1337890625 77.72552490234375 C -437.3392028808594 75.75785064697266 -437.3409118652344 74.16293334960938 -437.1392822265625 72.70693206787109 C -436.9659118652344 71.3883056640625 -436.6203918457031 70.00469207763672 -436.0523681640625 68.35604858398438 C -435.6061706542969 67.07350921630859 -434.7769775390625 66.06217956542969 -433.717041015625 65.50693511962891 C -433.120849609375 65.18991088867188 -432.4666748046875 65.02158355712891 -431.827880859375 65.02158355712891 C -431.4624938964844 65.02158355712891 -431.108642578125 65.07711029052734 -430.776123046875 65.18663024902344 L -430.7713623046875 65.18820190429688 L -430.7666015625 65.18987274169922 C -430.0787658691406 65.431884765625 -429.4957580566406 66.02335357666016 -429.1666870117188 66.81292724609375 C -428.8111877441406 67.63795471191406 -428.7306823730469 68.62155151367188 -428.933837890625 69.65785980224609 L -429.140869140625 70.71392059326172 L -429.814453125 69.87461853027344 C -430.1348876953125 69.47534942626953 -430.4292907714844 69.01800537109375 -430.6894836425781 68.5152587890625 C -430.7483825683594 68.40322113037109 -430.7987670898438 68.28952026367188 -430.8474426269531 68.17957305908203 C -430.939453125 67.97185516357422 -431.0188903808594 67.79246520996094 -431.1364135742188 67.66567230224609 L -431.1424560546875 67.65917205810547 L -431.1482543945313 67.65245056152344 C -431.3697509765625 67.39575958251953 -431.716552734375 67.24252319335938 -432.0758666992188 67.24252319335938 C -432.2383728027344 67.24252319335938 -432.3916015625 67.27391052246094 -432.5312194824219 67.33583068847656 L -432.5391845703125 67.33936309814453 L -432.5472412109375 67.34261322021484 C -432.9774169921875 67.51570892333984 -433.2904663085938 67.98297882080078 -433.2916259765625 68.45368194580078 L -433.2916259765625 68.45840454101563 L -433.291748046875 68.46311950683594 C -433.2981567382813 68.76393890380859 -433.1468811035156 69.07957458496094 -432.9867553710938 69.41373443603516 L -432.97802734375 69.43196868896484 C -432.2298278808594 70.94686889648438 -431.1679992675781 72.27394104003906 -429.9072570800781 73.26968383789063 L -429.6763000488281 73.45209503173828 L -429.7236938476563 73.74254608154297 C -429.9037780761719 74.84685516357422 -429.9950256347656 75.86615753173828 -430.0008544921875 76.84427642822266 C -429.26611328125 76.95960235595703 -428.5312194824219 77.07382202148438 -427.7963562011719 77.18803405761719 C -426.8521118164063 77.33478546142578 -425.8757629394531 77.48651885986328 -424.9153747558594 77.63832092285156 L -424.9101867675781 77.63914489746094 L -424.905029296875 77.64007568359375 C -424.0042724609375 77.80190277099609 -423.2179260253906 78.46720886230469 -422.8998413085938 79.33586883544922 C -422.5150451660156 80.31307983398438 -422.1292724609375 81.28989410400391 -421.7434387207031 82.26675415039063 C -421.1658630371094 83.72913360595703 -420.5686340332031 85.24129486083984 -419.9847106933594 86.73039245605469 L -419.983642578125 86.73305511474609 L -419.9826354980469 86.73573303222656 C -419.7445068359375 87.3641357421875 -419.7779235839844 88.09538269042969 -420.0743408203125 88.74195861816406 C -420.3665161132813 89.37930297851563 -420.8887023925781 89.87537384033203 -421.5084838867188 90.10498809814453 C -421.808837890625 90.23123931884766 -422.1313781738281 90.29524993896484 -422.4673461914063 90.29524993896484 Z" stroke="none"/>
        <path d="M -431.827880859375 65.52157592773438 C -432.4024658203125 65.52157592773438 -432.9794616699219 65.68100738525391 -433.4850158691406 65.94984436035156 C -434.495361328125 66.47911071777344 -435.2099304199219 67.45623016357422 -435.5796508789063 68.5189208984375 C -436.0565795898438 69.90317535400391 -436.4529418945313 71.32230377197266 -436.6440124511719 72.77552032470703 C -436.8692016601563 74.40155029296875 -436.8060607910156 76.05250549316406 -436.6357116699219 77.6810302734375 C -436.5742492675781 78.52603149414063 -436.3108215332031 79.3818359375 -435.7782287597656 80.05152893066406 C -435.3179321289063 80.63729858398438 -434.6150207519531 80.99208068847656 -433.8905029296875 81.12086486816406 C -431.5781555175781 81.48313140869141 -429.2633361816406 81.83376312255859 -426.95263671875 82.20433044433594 C -426.1201171875 84.30811309814453 -425.2983703613281 86.41606140136719 -424.4583435058594 88.51734924316406 C -424.1308898925781 89.30101776123047 -423.2993774414063 89.79524993896484 -422.4673461914063 89.79524993896484 C -422.2037353515625 89.79524993896484 -421.9400329589844 89.74562072753906 -421.6923522949219 89.63986968994141 C -420.6346435546875 89.25516510009766 -420.0521850585938 87.96315002441406 -420.4501953125 86.91292572021484 C -421.4181823730469 84.44438171386719 -422.3961181640625 81.97999572753906 -423.3674011230469 79.51311492919922 C -423.6216430664063 78.81268310546875 -424.2581176757813 78.26430511474609 -424.9934387207031 78.13219451904297 C -426.8280029296875 77.84222412109375 -428.6634521484375 77.56138610839844 -430.4980163574219 77.27223205566406 C -430.5212707519531 76.06330871582031 -430.41162109375 74.85438537597656 -430.2171630859375 73.66206359863281 C -431.5731811523438 72.591064453125 -432.6641235351563 71.19766998291016 -433.4277038574219 69.65057373046875 C -433.6080017089844 69.27419281005859 -433.8007507324219 68.88035583496094 -433.7916259765625 68.45245361328125 C -433.7899780273438 67.7802734375 -433.3595581054688 67.13052368164063 -432.7339172363281 66.87876129150391 C -432.52587890625 66.78651428222656 -432.3010559082031 66.74251556396484 -432.0758666992188 66.74251556396484 C -431.5850524902344 66.74251556396484 -431.0926513671875 66.95158386230469 -430.7697143554688 67.32578277587891 C -430.5171203613281 67.59830474853516 -430.4149169921875 67.96306610107422 -430.2454223632813 68.28543853759766 C -430.0127868652344 68.73493957519531 -429.7419128417969 69.16617584228516 -429.4244995117188 69.56167602539063 C -429.2583618164063 68.71417999267578 -429.2807922363281 67.80934906005859 -429.6272583007813 67.00755310058594 C -429.8715209960938 66.42012023925781 -430.3185424804688 65.8775634765625 -430.9325561523438 65.66152954101563 C -431.2232666015625 65.56578063964844 -431.5251770019531 65.52157592773438 -431.827880859375 65.52157592773438 M -431.827880859375 64.52157592773438 C -431.4092712402344 64.52157592773438 -431.0028076171875 64.58555603027344 -430.6197204589844 64.71173095703125 L -430.6101684570313 64.71487426757813 L -430.6006774902344 64.71821594238281 C -429.7804870605469 65.00677490234375 -429.0905456542969 65.69855499267578 -428.7067260742188 66.6168212890625 C -428.3118286132813 67.53447723388672 -428.220703125 68.61910247802734 -428.4431762695313 69.75405120849609 L -428.8572387695313 71.86617279052734 L -430.2044067382813 70.18758392333984 C -430.544677734375 69.76360321044922 -430.8565673828125 69.27962493896484 -431.1314697265625 68.74906158447266 C -431.1992492675781 68.61991882324219 -431.2552185058594 68.49357604980469 -431.3046264648438 68.38204956054688 C -431.372314453125 68.22922515869141 -431.4422912597656 68.07118988037109 -431.5031433105469 68.00556182861328 L -431.5151977539063 67.9925537109375 L -431.5267944335938 67.9791259765625 C -431.6527099609375 67.83318328857422 -431.8631286621094 67.74252319335938 -432.0758666992188 67.74252319335938 C -432.1668395996094 67.74252319335938 -432.2541809082031 67.75994110107422 -432.3285217285156 67.79290008544922 L -432.3444519042969 67.79996490478516 L -432.360595703125 67.80647277832031 C -432.6056518554688 67.90508270263672 -432.7909545898438 68.18385314941406 -432.7916259765625 68.45490264892578 L -432.7916564941406 68.46434020996094 L -432.7918395996094 68.47378540039063 C -432.7957153320313 68.6553955078125 -432.6636047363281 68.93105316162109 -432.5358581542969 69.19763946533203 L -432.5284423828125 69.21308898925781 C -431.81298828125 70.66085815429688 -430.799560546875 71.92779541015625 -429.5973510742188 72.87731170654297 L -429.1354675292969 73.24211883544922 L -429.2301940917969 73.82302856445313 C -429.3798217773438 74.74038696289063 -429.4666442871094 75.5965576171875 -429.4927368164063 76.41779327392578 C -428.9017333984375 76.51023864746094 -428.3106079101563 76.60210418701172 -427.7195434570313 76.6939697265625 C -426.7750244140625 76.84075927734375 -425.79833984375 76.99256134033203 -424.8373107910156 77.14445495605469 L -424.8269653320313 77.14609527587891 L -424.8166198730469 77.14794921875 C -423.7462463378906 77.34024810791016 -422.8120727539063 78.12836456298828 -422.4325561523438 79.15782928466797 C -422.0481567382813 80.13417816162109 -421.6626586914063 81.11019897460938 -421.2771911621094 82.08618927001953 C -420.6998901367188 83.54782867431641 -420.1029357910156 85.05923461914063 -419.5192260742188 86.5478515625 L -419.5171203613281 86.55319213867188 L -419.5151062011719 86.55854034423828 C -419.2298583984375 87.31118011474609 -419.2680358886719 88.18295288085938 -419.6198425292969 88.95033264160156 C -419.9653930664063 89.70407867431641 -420.5857238769531 90.29302215576172 -421.3246154785156 90.570068359375 C -421.683837890625 90.71950531005859 -422.068115234375 90.79524993896484 -422.4673461914063 90.79524993896484 C -423.7371520996094 90.79524993896484 -424.9080505371094 90.03477478027344 -425.3810424804688 88.90290069580078 L -425.3840026855469 88.895751953125 L -425.3869018554688 88.88856506347656 C -425.9148864746094 87.56780242919922 -426.4438781738281 86.22357177734375 -426.9554443359375 84.92359924316406 C -427.1944580078125 84.3162841796875 -427.4334411621094 83.708984375 -427.6731262207031 83.10195922851563 C -428.9470520019531 82.89939880371094 -430.2342834472656 82.7001953125 -431.4844970703125 82.50672912597656 C -432.3381958007813 82.37461853027344 -433.1919250488281 82.24250030517578 -434.0452880859375 82.10881042480469 L -434.055419921875 82.10722351074219 L -434.0654907226563 82.10543060302734 C -435.0915832519531 81.92305755615234 -435.9781494140625 81.41408538818359 -436.5623779296875 80.67212677001953 C -437.1776123046875 79.89763641357422 -437.5472717285156 78.89427185058594 -437.6318969726563 77.76964569091797 C -437.8406372070313 75.76580810546875 -437.8416137695313 74.13587951660156 -437.6350402832031 72.64169311523438 C -437.4565734863281 71.28659057617188 -437.1038513183594 69.87291717529297 -436.5251159667969 68.19316864013672 C -436.0368347167969 66.78968811035156 -435.1231384277344 65.67990875244141 -433.9513244628906 65.06521606445313 C -433.28125 64.70954895019531 -432.5470581054688 64.52157592773438 -431.827880859375 64.52157592773438 Z" stroke="none" fill="#3d3d3d"/>
      </g>
      <g id="Path_4" data-name="Path 4" transform="translate(10997.631 1829.003)" fill="#fff">
        <path d="M -386.9331665039063 93.27387237548828 C -388.9875793457031 93.27387237548828 -391.0145874023438 92.68325042724609 -392.6408386230469 91.61080169677734 C -394.2931823730469 90.53368377685547 -395.671630859375 88.97290802001953 -396.625 87.09867095947266 L -396.6300659179688 87.08869171142578 L -396.6346740722656 87.0784912109375 C -396.6632385253906 87.01557159423828 -396.6936645507813 86.95240783691406 -396.7242431640625 86.88880920410156 C -396.89501953125 86.53392791748047 -397.1072692871094 86.09271240234375 -397.055419921875 85.57971954345703 C -396.998046875 84.82341766357422 -396.456298828125 84.14898681640625 -395.7336120605469 83.93387603759766 C -395.5581665039063 83.87564086914063 -395.3734436035156 83.84612274169922 -395.1842651367188 83.84612274169922 C -394.4833679199219 83.84612274169922 -393.8293762207031 84.23976135253906 -393.5180969238281 84.84896850585938 L -393.5102233886719 84.86435699462891 L -393.5034484863281 84.88026428222656 C -392.7787475585938 86.57893371582031 -391.5707702636719 87.949951171875 -390.1020202636719 88.74076080322266 C -389.1736450195313 89.24365234375 -388.0518493652344 89.50914764404297 -386.8567504882813 89.50914764404297 C -386.7077026367188 89.50914764404297 -386.5558776855469 89.50499725341797 -386.4053955078125 89.49683380126953 C -386.3751525878906 89.49530792236328 -386.3469848632813 89.49461364746094 -386.3190002441406 89.49461364746094 C -385.4125671386719 89.49461364746094 -384.5932006835938 90.22712707519531 -384.4881286621094 91.12929534912109 C -384.3776550292969 91.90589904785156 -384.7872924804688 92.69246673583984 -385.4871520996094 93.04752349853516 C -385.8943786621094 93.26606750488281 -386.3179016113281 93.26894378662109 -386.6918334960938 93.27146148681641 C -386.7508239746094 93.27185821533203 -386.8095092773438 93.27223205566406 -386.8675842285156 93.27359008789063 L -386.8721618652344 93.27370452880859 L -386.8767395019531 93.27371978759766 L -386.9331665039063 93.27387237548828 Z" stroke="none"/>
        <path d="M -395.1842651367188 84.34612274169922 C -395.3190612792969 84.34612274169922 -395.4539184570313 84.36693572998047 -395.5835571289063 84.41091918945313 C -396.1178283691406 84.56629943847656 -396.5182800292969 85.07147216796875 -396.5573425292969 85.62400817871094 C -396.6055603027344 86.07518005371094 -396.3579406738281 86.4781494140625 -396.1793212890625 86.87197875976563 C -395.2994079589844 88.60188293457031 -393.9957580566406 90.13071441650391 -392.3655700683594 91.19338989257813 C -390.7653198242188 92.24868774414063 -388.8447570800781 92.77387237548828 -386.9331665039063 92.77387237548828 C -386.915283203125 92.77387237548828 -386.897216796875 92.77382659912109 -386.8793029785156 92.77372741699219 C -386.4895935058594 92.76458740234375 -386.0733337402344 92.7969970703125 -385.7185363769531 92.60423278808594 C -385.2100219726563 92.34914398193359 -384.9009704589844 91.75755310058594 -384.9840698242188 91.19338989257813 C -385.0566711425781 90.53993225097656 -385.6610412597656 89.99456024169922 -386.3190002441406 89.99460601806641 C -386.3386840820313 89.99461364746094 -386.3584899902344 89.99510192871094 -386.3782653808594 89.99609375 C -386.5374145507813 90.00473785400391 -386.6970520019531 90.00914764404297 -386.8567504882813 90.00914764404297 C -388.0627746582031 90.00914764404297 -389.2744445800781 89.75770568847656 -390.3390502929688 89.18099975585938 C -391.9825439453125 88.29611206054688 -393.236328125 86.78059387207031 -393.9633483886719 85.07646179199219 C -394.1920776367188 84.62879180908203 -394.6876220703125 84.34612274169922 -395.1842651367188 84.34612274169922 M -395.1842651367188 83.34612274169922 C -394.2974853515625 83.34612274169922 -393.4687194824219 83.84671783447266 -393.0728454589844 84.6214599609375 L -393.05712890625 84.65225219726563 L -393.0435485839844 84.68405914306641 C -392.3631591796875 86.27887725830078 -391.2343139648438 87.563232421875 -389.864990234375 88.30051422119141 C -389.0083923339844 88.76453399658203 -387.9689636230469 89.00914764404297 -386.8567504882813 89.00914764404297 C -386.7167358398438 89.00914764404297 -386.5740051269531 89.0052490234375 -386.4325256347656 88.99755859375 C -386.3918151855469 88.99552154541016 -386.3552856445313 88.99461364746094 -386.3190002441406 88.99461364746094 C -385.1492919921875 88.99452209472656 -384.1307983398438 89.90239715576172 -383.9922790527344 91.06491088867188 C -383.8553771972656 92.04674530029297 -384.3726806640625 93.03998565673828 -385.2559204101563 93.49087524414063 C -385.7708435058594 93.76525115966797 -386.3006286621094 93.76883697509766 -386.6884765625 93.77145385742188 C -386.7446594238281 93.77182769775391 -386.800537109375 93.77216339111328 -386.8558654785156 93.77346038818359 L -386.8650512695313 93.77367401123047 L -386.874267578125 93.77371978759766 L -386.9331665039063 93.77387237548828 C -389.0834045410156 93.77387237548828 -391.2073974609375 93.15435791015625 -392.9140319824219 92.02957153320313 C -394.6407470703125 90.90329742431641 -396.078125 89.27659606933594 -397.0706481933594 87.32534790039063 L -397.080810546875 87.30541229248047 L -397.0900268554688 87.2850341796875 C -397.1170349121094 87.22550964355469 -397.1458435058594 87.16580200195313 -397.1748046875 87.10565185546875 C -397.36181640625 86.71694183349609 -397.6173706054688 86.18595123291016 -397.5535278320313 85.53572845458984 C -397.4784545898438 84.5819091796875 -396.7954406738281 83.73184204101563 -395.8837585449219 83.45690155029297 C -395.6596374511719 83.38337707519531 -395.4244384765625 83.34612274169922 -395.1842651367188 83.34612274169922 Z" stroke="none" fill="#3d3d3d"/>
      </g>
      <g id="Path_5" data-name="Path 5" transform="translate(11189.666 1813.979)" fill="#fff">
        <path d="M -594.149169921875 113.847282409668 C -594.1695556640625 113.847282409668 -594.1898803710938 113.846809387207 -594.2103271484375 113.8458633422852 C -594.930419921875 113.8453674316406 -595.650634765625 113.8452072143555 -596.3706665039063 113.8452072143555 C -597.09716796875 113.8452072143555 -597.82373046875 113.8453674316406 -598.55029296875 113.8455429077148 C -599.2767944335938 113.8457107543945 -600.0032348632813 113.8458709716797 -600.7296142578125 113.8458709716797 C -602.4850463867188 113.8458709716797 -603.8274536132813 113.8448486328125 -605.0820922851563 113.8425521850586 L -605.0965576171875 113.8426818847656 C -605.79931640625 113.8426818847656 -606.4143676757813 113.2797698974609 -606.4967651367188 112.561149597168 L -606.5 112.5327682495117 L -606.5 112.5041885375977 L -606.5 101.5615158081055 L -606.5 101.5272064208984 L -606.4953002929688 101.4932327270508 C -606.39794921875 100.7870864868164 -605.7830810546875 100.2339477539063 -605.095458984375 100.2339477539063 L -605.0941162109375 100.2339477539063 L -605.0883178710938 100.2339706420898 C -603.7592163085938 100.2333374023438 -602.426513671875 100.2331771850586 -601.094482421875 100.2331771850586 L -598.9188232421875 100.2332763671875 L -596.7431640625 100.2333679199219 C -595.9265747070313 100.2333679199219 -595.1104125976563 100.2333068847656 -594.2938232421875 100.2331237792969 C -594.2658081054688 100.2317428588867 -594.2376098632813 100.2310485839844 -594.2094116210938 100.2310485839844 C -593.7119140625 100.2310485839844 -593.2650756835938 100.4466934204102 -593.0096435546875 100.8089752197266 C -592.7401123046875 101.1544418334961 -592.7218017578125 101.5566940307617 -592.7261352539063 101.9075012207031 C -592.730224609375 103.6591415405273 -592.7296142578125 105.4457702636719 -592.72900390625 107.1735687255859 C -592.7283325195313 108.9021682739258 -592.7277221679688 110.6896209716797 -592.7318725585938 112.4480361938477 C -592.730712890625 112.8071823120117 -592.8768310546875 113.1537857055664 -593.1433715820313 113.4211959838867 C -593.4132080078125 113.6919555664063 -593.7796020507813 113.8472595214844 -594.1486206054688 113.847282409668 C -594.1488037109375 113.847282409668 -594.1489868164063 113.847282409668 -594.149169921875 113.847282409668 Z" stroke="none"/>
        <path d="M -594.2094116210938 100.7310485839844 C -594.233154296875 100.7310485839844 -594.2568969726563 100.7317428588867 -594.2804565429688 100.7331161499023 C -595.1015014648438 100.7333145141602 -595.922119140625 100.7333755493164 -596.7431640625 100.7333755493164 C -598.1936645507813 100.7333755493164 -599.6439819335938 100.7331848144531 -601.094482421875 100.7331848144531 C -602.4264526367188 100.7331848144531 -603.759033203125 100.7333450317383 -605.0910034179688 100.7339630126953 C -605.0924682617188 100.7339477539063 -605.093994140625 100.7339477539063 -605.095458984375 100.7339477539063 C -605.5538330078125 100.7339477539063 -605.9386596679688 101.1167755126953 -606 101.5615158081055 L -606 112.5041885375977 C -605.9482421875 112.9555892944336 -605.558837890625 113.3426818847656 -605.0965576171875 113.3426818847656 C -605.0916748046875 113.3426818847656 -605.0867309570313 113.3426361083984 -605.0818481445313 113.3425521850586 C -603.630859375 113.3452072143555 -602.1804809570313 113.3458709716797 -600.7296142578125 113.3458709716797 C -599.2767333984375 113.3458709716797 -597.8236083984375 113.3452072143555 -596.3706665039063 113.3452072143555 C -595.6463012695313 113.3452072143555 -594.9217529296875 113.3453750610352 -594.1973266601563 113.3458709716797 C -594.1810302734375 113.3468170166016 -594.1648559570313 113.347282409668 -594.148681640625 113.347282409668 C -593.6680908203125 113.347282409668 -593.2302856445313 112.9347610473633 -593.2318725585938 112.4468612670898 C -593.2235717773438 108.9314117431641 -593.234375 105.4159622192383 -593.22607421875 101.9013366699219 C -593.2227172851563 101.6279830932617 -593.2310180664063 101.3305282592773 -593.411376953125 101.1070175170898 C -593.5887451171875 100.8464126586914 -593.9034423828125 100.7310409545898 -594.2094116210938 100.7310485839844 M -594.20947265625 99.73104858398438 C -594.2094116210938 99.73104858398438 -594.2094116210938 99.73104858398438 -594.2094116210938 99.73104858398438 C -593.5532836914063 99.73103332519531 -592.9578247070313 100.0219116210938 -592.6077880859375 100.5112915039063 C -592.2177734375 101.0194702148438 -592.2224731445313 101.6146011352539 -592.22607421875 101.9079208374023 C -592.230224609375 103.6625137329102 -592.2296142578125 105.4472885131836 -592.22900390625 107.1733856201172 C -592.2283325195313 108.9023284912109 -592.2277221679688 110.6901168823242 -592.2318725585938 112.44921875 C -592.2317504882813 112.9429931640625 -592.4295654296875 113.4133529663086 -592.7892456054688 113.7742080688477 C -593.1522827148438 114.1383972167969 -593.6477661132813 114.347282409668 -594.148681640625 114.347282409668 C -594.1728515625 114.347282409668 -594.1969604492188 114.346809387207 -594.22119140625 114.3458557128906 C -594.9376220703125 114.3453674316406 -595.654296875 114.3452072143555 -596.3706665039063 114.3452072143555 L -598.5499267578125 114.3455429077148 L -600.7296142578125 114.3458709716797 C -602.4840698242188 114.3458709716797 -603.8250732421875 114.344856262207 -605.0759887695313 114.3425598144531 C -605.0828247070313 114.342643737793 -605.0897216796875 114.3426818847656 -605.0965576171875 114.3426818847656 C -606.0493774414063 114.3426818847656 -606.8826293945313 113.5851516723633 -606.9934692382813 112.6180877685547 L -607 112.5613174438477 L -607 112.5041885375977 L -607 101.5615158081055 L -607 101.4929122924805 L -606.9906005859375 101.4249420166016 C -606.8577270507813 100.4609222412109 -606.04296875 99.73394775390625 -605.095458984375 99.73394775390625 L -605.0921020507813 99.73394775390625 L -605.0897216796875 99.73395538330078 C -603.7581176757813 99.73333740234375 -602.426025390625 99.73317718505859 -601.094482421875 99.73317718505859 L -598.9187622070313 99.7332763671875 L -596.7431640625 99.73336791992188 C -595.930419921875 99.73336791992188 -595.1181030273438 99.73330688476563 -594.3053588867188 99.73312377929688 C -594.2734375 99.73174285888672 -594.2413330078125 99.73104858398438 -594.20947265625 99.73104858398438 L -594.20947265625 99.73104858398438 Z" stroke="none" fill="#3d3d3d"/>
      </g>
      <g id="Path_6" data-name="Path 6" transform="translate(10905.103 1754.048)" fill="#fff">
        <path d="M -279.6496887207031 180.8525695800781 L -279.8302307128906 180.5657958984375 C -280.8110046386719 179.0081939697266 -282.6179504394531 178.0017395019531 -284.4336853027344 178.0017395019531 L -284.4603881835938 178.0018157958984 L -284.4636840820313 178.0018310546875 L -284.4670104980469 178.0018005371094 L -284.5085144042969 178.0016479492188 C -286.0227661132813 178.0016479492188 -287.536865234375 178.6672821044922 -288.5587158203125 179.7822418212891 L -289.1265563964844 180.4018096923828 L -289.4001159667969 179.6071472167969 C -290.2210388183594 177.2223358154297 -291.0523071289063 174.7964019775391 -291.856201171875 172.4503326416016 C -292.2815551757813 171.2090759277344 -292.7068786621094 169.9677886962891 -293.1326904296875 168.7266693115234 C -293.1957702636719 168.7506561279297 -293.258544921875 168.7745971679688 -293.3207092285156 168.7983093261719 C -293.6633605957031 168.9290466308594 -294.0177001953125 169.0642242431641 -294.3735961914063 169.1876678466797 C -294.5086669921875 169.2333831787109 -294.6452026367188 169.2559356689453 -294.782958984375 169.2559356689453 C -295.4254760742188 169.2559356689453 -296.0089721679688 168.7636871337891 -296.1401977539063 168.1108856201172 L -296.2696838378906 167.4666748046875 L -295.6142883300781 167.5136260986328 L -295.5187072753906 167.5204925537109 C -295.1272888183594 167.5486907958984 -294.7225646972656 167.5778656005859 -294.3330078125 167.5778656005859 C -294.037353515625 167.5778656005859 -293.7757568359375 167.5612487792969 -293.533935546875 167.5271148681641 C -292.9531860351563 167.4015808105469 -292.5208129882813 166.7729339599609 -292.5876770019531 166.1469573974609 L -292.6785583496094 165.2963104248047 L -291.8927917480469 165.6345977783203 C -291.7217712402344 165.7082214355469 -291.2028198242188 165.9316253662109 -291.0218505859375 166.4731903076172 C -290.9054565429688 166.7999877929688 -290.7924499511719 167.1322937011719 -290.6831359863281 167.4537353515625 C -290.6634521484375 167.5116119384766 -290.6437683105469 167.5694885253906 -290.6240539550781 167.6273651123047 C -290.6063842773438 167.6273803710938 -290.5886840820313 167.6273956298828 -290.5709838867188 167.6273956298828 C -290.4209289550781 167.6273956298828 -290.2708740234375 167.6267547607422 -290.1208190917969 167.6261291503906 C -289.9693603515625 167.6255035400391 -289.8179016113281 167.6248626708984 -289.6664428710938 167.6248626708984 C -289.6245422363281 167.6248626708984 -289.584228515625 167.6249084472656 -289.545166015625 167.625 C -289.1687622070313 166.6524505615234 -288.3131713867188 165.8914337158203 -287.3146362304688 165.6757354736328 L -287.3108825683594 165.6749267578125 L -287.30712890625 165.6741790771484 L -287.2881774902344 165.6703796386719 C -287.1175537109375 165.6361999511719 -286.9052124023438 165.5936431884766 -286.6859741210938 165.5936431884766 C -286.3286743164063 165.5936431884766 -286.0351867675781 165.7069854736328 -285.8136596679688 165.9305114746094 L -285.8109436035156 165.9332580566406 L -285.8082580566406 165.9360656738281 C -285.3724670410156 166.3896636962891 -285.212646484375 166.9990539550781 -285.1138000488281 167.5353546142578 L -285.1125183105469 167.542236328125 L -285.1114501953125 167.5491333007813 C -284.9304504394531 168.7126312255859 -285.0005798339844 169.7786254882813 -285.3199157714844 170.7174835205078 L -285.3225708007813 170.7253265380859 L -285.3254699707031 170.7330780029297 C -285.4196472167969 170.9825134277344 -285.7061767578125 171.7416076660156 -286.4531555175781 171.8543701171875 L -286.4745788574219 171.8576049804688 L -286.4962158203125 171.8589782714844 C -286.5542907714844 171.8626556396484 -286.6133422851563 171.8645172119141 -286.6717834472656 171.8645172119141 C -286.8268127441406 171.8645172119141 -286.9807739257813 171.8514862060547 -287.1322021484375 171.8264312744141 C -286.5157165527344 172.4229431152344 -286.0030822753906 173.0964965820313 -285.6177368164063 173.826416015625 C -285.3515930175781 174.3138580322266 -285.1654663085938 174.8253326416016 -284.9854125976563 175.3200378417969 C -284.9711303710938 175.3592834472656 -284.9567260742188 175.3988800048828 -284.9421997070313 175.4386596679688 C -283.9129638671875 175.4683074951172 -282.9673156738281 175.6590423583984 -282.127685546875 176.0066986083984 C -280.9983825683594 176.4596710205078 -279.9988403320313 177.2301940917969 -279.2371520996094 178.2350463867188 C -278.9251098632813 178.6510925292969 -278.5732116699219 179.1203308105469 -278.4130249023438 179.7064056396484 L -278.3953247070313 179.7711334228516 L -278.3953247070313 179.8382415771484 L -278.3953247070313 179.9919738769531 L -278.3953247070313 180.0736846923828 L -278.4213256835938 180.1511383056641 C -278.59130859375 180.6573181152344 -279.0810546875 180.7476654052734 -279.3164367675781 180.7910919189453 L -279.6496887207031 180.8525695800781 Z M -289.7999572753906 170.0296936035156 C -289.6495666503906 170.0978240966797 -289.5016479492188 170.1692810058594 -289.3562927246094 170.2439575195313 C -289.4295654296875 170.1136932373047 -289.4935607910156 169.97802734375 -289.5473937988281 169.8374786376953 C -289.654052734375 169.8364105224609 -289.760986328125 169.8355865478516 -289.8672485351563 169.8352355957031 C -289.8501281738281 169.884765625 -289.8329772949219 169.9343109130859 -289.8158264160156 169.9838562011719 L -289.7999572753906 170.0296936035156 Z" stroke="none"/>
        <path d="M -286.6859741210938 166.0936584472656 C -286.8624572753906 166.0936584472656 -287.0454711914063 166.1317443847656 -287.2090759277344 166.1644744873047 C -288.1745910644531 166.3730316162109 -288.948974609375 167.1748199462891 -289.1799621582031 168.1278381347656 C -289.3421325683594 168.1255950927734 -289.5042724609375 168.1248626708984 -289.6664428710938 168.1248626708984 C -289.9679565429688 168.1248626708984 -290.2694702148438 168.1273956298828 -290.5709838867188 168.1273956298828 C -290.7080078125 168.1273956298828 -290.8450927734375 168.1268615722656 -290.9821166992188 168.1253509521484 C -291.1532592773438 167.6284942626953 -291.3186340332031 167.1299438476563 -291.4947814941406 166.6355895996094 C -291.5845031738281 166.3613891601563 -291.839599609375 166.2018585205078 -292.0905151367188 166.0938415527344 C -291.998291015625 166.9571228027344 -292.5823974609375 167.8445129394531 -293.4473266601563 168.0198211669922 C -293.7410583496094 168.0623168945313 -294.0367431640625 168.0778656005859 -294.3330078125 168.0778656005859 C -294.7725219726563 168.0778656005859 -295.2132263183594 168.0436248779297 -295.6499938964844 168.0123443603516 C -295.5673828125 168.4232940673828 -295.1942443847656 168.7559356689453 -294.7829895019531 168.7559356689453 C -294.7019653320313 168.7559356689453 -294.6194763183594 168.7430267333984 -294.5374450683594 168.7152709960938 C -293.9624938964844 168.5158538818359 -293.3974914550781 168.2873687744141 -292.82666015625 168.0779876708984 C -291.5263366699219 171.8667907714844 -290.2309875488281 175.6572723388672 -288.9273376464844 179.4444122314453 C -287.8067321777344 178.2217102050781 -286.1664733886719 177.5016326904297 -284.5084838867188 177.5016326904297 C -284.4933471679688 177.5016326904297 -284.4781494140625 177.5016937255859 -284.4630432128906 177.5018157958984 C -284.4531860351563 177.5017547607422 -284.4435729980469 177.5017395019531 -284.4337158203125 177.5017395019531 C -282.4250793457031 177.5017395019531 -280.4754028320313 178.6027679443359 -279.4071350097656 180.2993927001953 C -279.2044067382813 180.2619934082031 -278.9700927734375 180.2146301269531 -278.8953247070313 179.9919738769531 L -278.8953247070313 179.8382415771484 C -279.0290832519531 179.3488616943359 -279.3365173339844 178.9359130859375 -279.6356201171875 178.5370941162109 C -280.3252563476563 177.6272888183594 -281.2541809082031 176.8952789306641 -282.3160400390625 176.4698791503906 C -283.2362060546875 176.0883178710938 -284.2367248535156 175.9345703125 -285.2281188964844 175.9345703125 C -285.2492065429688 175.9345703125 -285.2703552246094 175.9346466064453 -285.2914123535156 175.9347839355469 C -285.5307312011719 175.3049774169922 -285.7334289550781 174.6569061279297 -286.0583190917969 174.0628204345703 C -286.9399108886719 172.3910827636719 -288.4778747558594 171.1347808837891 -290.2010803222656 170.3994598388672 C -290.3232421875 170.0463409423828 -290.4453735351563 169.6940460205078 -290.5666809082031 169.3417510986328 C -290.37109375 169.3368377685547 -290.1755676269531 169.3350372314453 -289.97998046875 169.3350372314453 C -289.7127685546875 169.3350372314453 -289.4454956054688 169.3383941650391 -289.1782531738281 169.3417510986328 C -288.910888671875 170.4735565185547 -287.8385925292969 171.3645172119141 -286.6718139648438 171.3645172119141 C -286.6239929199219 171.3645172119141 -286.5758666992188 171.3630065917969 -286.5277709960938 171.3599700927734 C -286.1314392089844 171.3001403808594 -285.9212341308594 170.8955078125 -285.7932739257813 170.5565032958984 C -285.4742431640625 169.6184387207031 -285.4542846679688 168.5981292724609 -285.6054992675781 167.6259918212891 C -285.6935729980469 167.1482391357422 -285.8231811523438 166.6422271728516 -286.1688232421875 166.2824554443359 C -286.311767578125 166.1382293701172 -286.4950256347656 166.0936584472656 -286.6859741210938 166.0936584472656 M -293.2666015625 164.4987945556641 L -291.6950988769531 165.1753387451172 C -291.1026916503906 165.4303894042969 -290.71728515625 165.8119506835938 -290.54931640625 166.3096618652344 C -290.4523315429688 166.5821838378906 -290.3580017089844 166.8573150634766 -290.2662658691406 167.126708984375 C -290.2184753417969 167.1265411376953 -290.1706848144531 167.1263275146484 -290.1228942871094 167.1261291503906 C -290.0395812988281 167.1257781982422 -289.9562377929688 167.1254425048828 -289.8729248046875 167.1251983642578 C -289.3884582519531 166.1462249755859 -288.4874572753906 165.4175415039063 -287.4202270507813 165.18701171875 L -287.4127197265625 165.1853942871094 L -287.4051818847656 165.1838836669922 L -287.3863525390625 165.1801147460938 C -287.194091796875 165.1416015625 -286.9547729492188 165.0936431884766 -286.6859741210938 165.0936431884766 C -286.0686340332031 165.0936431884766 -285.677734375 165.3573455810547 -285.4585266113281 165.5785522460938 L -285.4530639648438 165.5840606689453 L -285.4476928710938 165.5896606445313 C -284.9203186035156 166.1386260986328 -284.734375 166.83544921875 -284.6220703125 167.4447021484375 L -284.6195373535156 167.4584655761719 L -284.6173706054688 167.4722747802734 C -284.4238586425781 168.7163848876953 -284.5009460449219 169.8623962402344 -284.8465270996094 170.8784790039063 L -284.8518676757813 170.8941497802734 L -284.8576965332031 170.9096374511719 C -285.1259765625 171.6204223632813 -285.527099609375 172.0753173828125 -286.0527648925781 172.2664642333984 C -285.7164001464844 172.6826324462891 -285.4229125976563 173.1250915527344 -285.1774597167969 173.5893707275391 C -284.9298400878906 174.0434417724609 -284.751708984375 174.5043029785156 -284.5865783691406 174.9544830322266 C -283.6279907226563 175.0148620605469 -282.7396545410156 175.2123870849609 -281.9382629394531 175.5439758300781 C -280.7261657714844 176.0308685302734 -279.6543884277344 176.8568878173828 -278.8386840820313 177.9330139160156 L -278.837158203125 177.9350433349609 L -278.8356323242188 177.9371032714844 C -278.5150146484375 178.3645782470703 -278.1160278320313 178.8965759277344 -277.9306945800781 179.5745849609375 L -277.8953247070313 179.7040405273438 L -277.8953247070313 179.8382415771484 L -277.8953247070313 179.9919738769531 L -277.8953247070313 180.1553955078125 L -277.9473571777344 180.310302734375 C -278.2110595703125 181.0956115722656 -278.9747619628906 181.2364959716797 -279.2257080078125 181.2828063964844 L -279.8922424316406 181.40576171875 L -280.2533569335938 180.8322143554688 C -281.144775390625 179.41650390625 -282.78564453125 178.5017242431641 -284.4337158203125 178.5017242431641 L -284.4579772949219 178.5018005371094 L -284.4644775390625 178.5018310546875 L -284.4709777832031 178.5017852783203 L -284.5084838867188 178.5016326904297 C -285.885009765625 178.5016326904297 -287.2613220214844 179.1066436767578 -288.1901245117188 180.1200714111328 L -289.3258056640625 181.3592071533203 L -289.8728942871094 179.7698974609375 C -290.6939392089844 177.3847503662109 -291.5252685546875 174.9586334228516 -292.3292236328125 172.6123962402344 C -292.6986694335938 171.5342102050781 -293.0681457519531 170.4559936523438 -293.4378967285156 169.3778991699219 C -293.6908874511719 169.4736938476563 -293.9490051269531 169.5696105957031 -294.2097473144531 169.6600494384766 L -294.21337890625 169.6613159179688 L -294.2170104980469 169.6625518798828 C -294.4002380371094 169.7245178222656 -294.5906372070313 169.7559356689453 -294.7829895019531 169.7559356689453 C -295.658935546875 169.7559356689453 -296.4531555175781 169.0910797119141 -296.63037109375 168.2094268798828 L -296.8893737792969 166.9210205078125 L -295.5785522460938 167.014892578125 L -295.4828491210938 167.0217742919922 C -295.0826110839844 167.0506134033203 -294.70458984375 167.0778656005859 -294.3330078125 167.0778656005859 C -294.0694274902344 167.0778656005859 -293.837158203125 167.0637817382813 -293.6242370605469 167.0348510742188 C -293.3010559082031 166.9546966552734 -293.0459899902344 166.5638275146484 -293.0848388671875 166.2000579833984 L -293.2666015625 164.4987945556641 Z" stroke="none" fill="#3d3d3d"/>
      </g>
      <g id="Path_7" data-name="Path 7" transform="translate(11162.653 1664.617)" fill="#fff">
        <path d="M -572.9430541992188 274.6232299804688 L -573.5592651367188 274.6185913085938 C -573.6959838867188 274.6175537109375 -573.8327026367188 274.6171569824219 -573.9694213867188 274.6171569824219 C -574.1957397460938 274.6171569824219 -574.422119140625 274.6182250976563 -574.6484985351563 274.6192932128906 C -574.87646484375 274.6203918457031 -575.1044311523438 274.6214599609375 -575.3323974609375 274.6214599609375 C -575.8209228515625 274.6214599609375 -576.1982421875 274.6164245605469 -576.5558471679688 274.6050720214844 L -577.0526733398438 274.5892944335938 L -577.039794921875 274.0923767089844 C -577.0130004882813 273.0551452636719 -576.8245239257813 271.9671020507813 -576.4287719726563 270.5645751953125 C -576.1303100585938 269.5075073242188 -575.7584838867188 268.4196166992188 -575.2966918945313 267.2533569335938 C -575.6222534179688 267.0625 -575.8502807617188 266.73291015625 -575.8816528320313 266.3509826660156 L -575.8827514648438 266.3382873535156 L -575.8831176757813 266.3255615234375 C -575.897705078125 265.8564147949219 -575.8946533203125 265.3838500976563 -575.8916625976563 264.9268798828125 C -575.8903198242188 264.7218322753906 -575.888916015625 264.5168151855469 -575.88916015625 264.3118896484375 C -575.8961181640625 264.0102844238281 -575.7791748046875 263.7197570800781 -575.5592041015625 263.492919921875 C -575.3344116210938 263.2610778808594 -575.0275268554688 263.1280822753906 -574.7171630859375 263.1280822753906 C -574.6934814453125 263.1280822753906 -574.6696166992188 263.1288757324219 -574.6459350585938 263.1304016113281 L -573.27734375 263.1305236816406 C -572.0833740234375 263.1305236816406 -570.8894653320313 263.1302795410156 -569.695556640625 263.1300659179688 C -568.5016479492188 263.1298217773438 -567.3077392578125 263.1295776367188 -566.1138305664063 263.1295776367188 C -564.287353515625 263.1295776367188 -562.4615478515625 263.130126953125 -560.635009765625 263.132080078125 C -560.6181640625 263.1312866210938 -560.6013793945313 263.1309204101563 -560.5846557617188 263.1309204101563 C -560.2808837890625 263.1309204101563 -559.9799194335938 263.2599182128906 -559.7589721679688 263.48486328125 C -559.5399780273438 263.7077941894531 -559.4166259765625 264.0076599121094 -559.4198608398438 264.3087768554688 C -559.4139404296875 264.9771118164063 -559.4098510742188 265.6323547363281 -559.42333984375 266.3001098632813 L -559.4234008789063 266.3044738769531 L -559.423583984375 266.3088684082031 C -559.4358520507813 266.6353759765625 -559.5978393554688 266.9317932128906 -559.878662109375 267.1560668945313 C -559.7102661132813 268.7341003417969 -559.3161010742188 270.2067260742188 -558.704833984375 271.5419006347656 C -557.5260620117188 271.5435791015625 -556.2638549804688 271.5443115234375 -554.6665649414063 271.5443115234375 C -553.8428955078125 271.5443115234375 -553.0191040039063 271.5441284179688 -552.1953735351563 271.5439147949219 C -551.3715209960938 271.5437316894531 -550.5476684570313 271.5435485839844 -549.723876953125 271.5435485839844 C -549.1480102539063 271.5435485839844 -548.5723876953125 271.5436401367188 -547.9965209960938 271.5438842773438 L -547.4169921875 271.5441589355469 L -547.502197265625 272.1173706054688 C -547.5941162109375 272.7357482910156 -547.5792236328125 273.3778381347656 -547.4580078125 274.0258178710938 L -547.3472900390625 274.6176452636719 L -547.9493408203125 274.6177673339844 C -549.045166015625 274.6179504394531 -550.1409912109375 274.618408203125 -551.2368774414063 274.6188354492188 C -552.72412109375 274.6194152832031 -554.2113647460938 274.6199951171875 -555.6986083984375 274.6199951171875 C -558.041748046875 274.6199951171875 -559.9652709960938 274.6184997558594 -561.7520751953125 274.6152954101563 L -562.3564453125 274.6141967773438 L -562.2421264648438 274.0207214355469 C -562.0363159179688 272.9522399902344 -562.1447143554688 271.8329162597656 -562.54736328125 270.8689880371094 L -562.5487670898438 270.8656005859375 L -562.5501708984375 270.8621826171875 C -563.080078125 269.5392456054688 -564.182861328125 268.4208984375 -565.5000610351563 267.87060546875 C -566.1727294921875 267.5833740234375 -566.914794921875 267.432373046875 -567.6495971679688 267.432373046875 C -567.919189453125 267.432373046875 -568.1895141601563 267.4525451660156 -568.4530639648438 267.4923706054688 C -569.883544921875 267.6948852539063 -571.2403564453125 268.5086059570313 -572.0870971679688 269.6697387695313 L -572.0888671875 269.672119140625 L -572.0906372070313 269.6744995117188 C -573.004638671875 270.8971862792969 -573.3690185546875 272.5213928222656 -573.0654296875 274.019287109375 L -572.9430541992188 274.6232299804688 Z" stroke="none"/>
        <path d="M -574.7171630859375 263.6280822753906 C -575.0723876953125 263.6280822753906 -575.4003295898438 263.9439392089844 -575.38916015625 264.3050842285156 C -575.3883666992188 264.9731140136719 -575.4041748046875 265.6419677734375 -575.3833618164063 266.3099975585938 C -575.3532104492188 266.67626953125 -575.0003051757813 266.9284973144531 -574.6484375 266.9284973144531 C -574.64111328125 266.9284973144531 -574.6337890625 266.9283752441406 -574.62646484375 266.9281616210938 C -575.1324462890625 268.1611938476563 -575.5853271484375 269.41748046875 -575.9475708007813 270.7003784179688 C -576.2608032226563 271.8104248046875 -576.5100708007813 272.9486999511719 -576.5399780273438 274.1053161621094 C -576.1375122070313 274.1180725097656 -575.7349853515625 274.1214599609375 -575.3323974609375 274.1214599609375 C -574.8780517578125 274.1214599609375 -574.4236450195313 274.1171569824219 -573.9694213867188 274.1171569824219 C -573.8314208984375 274.1171569824219 -573.6934814453125 274.1175537109375 -573.5554809570313 274.1185913085938 C -573.8877563476563 272.479248046875 -573.4923095703125 270.7144775390625 -572.4910888671875 269.3751220703125 C -571.5579833984375 268.0955810546875 -570.0948486328125 267.2198181152344 -568.5277709960938 266.9979858398438 C -568.2371826171875 266.9540710449219 -567.9435424804688 266.932373046875 -567.6495971679688 266.932373046875 C -566.8475952148438 266.932373046875 -566.0448608398438 267.0942687988281 -565.3073120117188 267.4092407226563 C -563.857421875 268.0149536132813 -562.6701049804688 269.2180786132813 -562.0859985351563 270.67626953125 C -561.6348266601563 271.7564086914063 -561.5301513671875 272.9678344726563 -561.7511596679688 274.1152954101563 C -559.733642578125 274.1189270019531 -557.7161254882813 274.1199951171875 -555.6986083984375 274.1199951171875 C -553.1156005859375 274.1199951171875 -550.532470703125 274.1182250976563 -547.949462890625 274.1177673339844 C -548.077392578125 273.4339599609375 -548.0989990234375 272.7318725585938 -547.9967651367188 272.0438842773438 C -548.5725708007813 272.0436401367188 -549.1481323242188 272.0435180664063 -549.723876953125 272.0435180664063 C -551.3713989257813 272.0435180664063 -553.0191040039063 272.0443115234375 -554.6665649414063 272.0443115234375 C -556.1182861328125 272.0443115234375 -557.5700073242188 272.043701171875 -559.0216674804688 272.0414123535156 C -559.8052368164063 270.435302734375 -560.249755859375 268.6763305664063 -560.4059448242188 266.89990234375 C -560.1649780273438 266.7819213867188 -559.9340209960938 266.5767211914063 -559.9232177734375 266.2900390625 C -559.909912109375 265.6295166015625 -559.9140625 264.9681396484375 -559.9198608398438 264.3075866699219 C -559.9135131835938 263.949462890625 -560.2275390625 263.6309204101563 -560.5846557617188 263.6309204101563 C -560.5970458984375 263.6309204101563 -560.6094970703125 263.6313171386719 -560.6220092773438 263.632080078125 C -562.452880859375 263.630126953125 -564.2830810546875 263.6295776367188 -566.1138305664063 263.6295776367188 C -568.5015869140625 263.6295776367188 -570.889404296875 263.6305236816406 -573.27734375 263.6305236816406 C -573.7396240234375 263.6305236816406 -574.202392578125 263.6304931640625 -574.6646728515625 263.6304016113281 C -574.6821899414063 263.6288452148438 -574.69970703125 263.6280822753906 -574.7171630859375 263.6280822753906 M -574.7171630859375 262.6280822753906 C -574.6885986328125 262.6280822753906 -574.659912109375 262.6288757324219 -574.6312866210938 262.6304016113281 L -573.27734375 262.6305236816406 C -572.0834350585938 262.6305236816406 -570.8895263671875 262.6303100585938 -569.6956787109375 262.6300659179688 C -568.501708984375 262.6298217773438 -567.3077392578125 262.6295776367188 -566.1138305664063 262.6295776367188 C -564.290771484375 262.6295776367188 -562.46826171875 262.630126953125 -560.6450805664063 262.6320495605469 C -560.6248779296875 262.6312866210938 -560.604736328125 262.6309204101563 -560.5846557617188 262.6309204101563 C -560.1476440429688 262.6308898925781 -559.7166748046875 262.8144226074219 -559.4022827148438 263.1344299316406 C -559.092041015625 263.4502868652344 -558.916748046875 263.8774108886719 -558.9197998046875 264.3087158203125 C -558.9139404296875 264.9793395996094 -558.9098510742188 265.63720703125 -558.9234008789063 266.3101806640625 L -558.923583984375 266.3189392089844 L -558.9239501953125 266.3276672363281 C -558.9381103515625 266.7046508789063 -559.0912475585938 267.057861328125 -559.3536376953125 267.3456115722656 C -559.1917114257813 268.6648254394531 -558.8650512695313 269.9036865234375 -558.3790283203125 271.0423278808594 C -557.2919921875 271.043701171875 -556.1173706054688 271.0443115234375 -554.6665649414063 271.0443115234375 C -553.8428955078125 271.0443115234375 -553.0192260742188 271.0441284179688 -552.1954956054688 271.0439147949219 C -551.37158203125 271.0437316894531 -550.5477294921875 271.0435485839844 -549.723876953125 271.0435485839844 C -549.14794921875 271.0435485839844 -548.572265625 271.0436401367188 -547.996337890625 271.0438842773438 L -546.8372802734375 271.0444030761719 L -547.0076293945313 272.1908874511719 C -547.09130859375 272.7541809082031 -547.0775146484375 273.3406066894531 -546.9664916992188 273.9338684082031 L -546.7450561523438 275.1175537109375 L -547.9492797851563 275.1177673339844 C -549.04296875 275.1179504394531 -550.13671875 275.118408203125 -551.2304077148438 275.1188354492188 C -552.7198486328125 275.1194152832031 -554.209228515625 275.1199951171875 -555.6986083984375 275.1199951171875 C -558.0425415039063 275.1199951171875 -559.9663696289063 275.1184997558594 -561.7529907226563 275.1152954101563 L -562.9617309570313 275.1131286621094 L -562.7330932617188 273.9261779785156 C -562.5457153320313 272.9531860351563 -562.6436157226563 271.9358825683594 -563.0087280273438 271.0616760253906 L -563.0115966796875 271.0549011230469 L -563.0142822265625 271.048095703125 C -563.4954223632813 269.8470153808594 -564.4967041015625 268.8316345214844 -565.6928100585938 268.3319702148438 L -565.6964111328125 268.3304443359375 L -565.7000122070313 268.3289184570313 C -566.3075561523438 268.0694885253906 -566.981689453125 267.932373046875 -567.6495971679688 267.932373046875 C -567.894287109375 267.932373046875 -568.1394653320313 267.9506530761719 -568.3783569335938 267.9867553710938 L -568.3829956054688 267.9874572753906 L -568.3876342773438 267.9881286621094 C -569.682373046875 268.17138671875 -570.9143676757813 268.9101867675781 -571.68310546875 269.96435546875 L -571.6865844726563 269.9691162109375 L -571.6901245117188 269.973876953125 C -572.5202026367188 271.0842895507813 -572.8511962890625 272.5594482421875 -572.575439453125 273.9199523925781 L -572.33056640625 275.1278686523438 L -573.5630493164063 275.1185607910156 C -573.698486328125 275.1175537109375 -573.8339233398438 275.1171569824219 -573.9694213867188 275.1171569824219 C -574.1949462890625 275.1171569824219 -574.4204711914063 275.1182250976563 -574.6460571289063 275.1192932128906 C -574.8748168945313 275.1203918457031 -575.1036376953125 275.1214599609375 -575.3323974609375 275.1214599609375 C -575.8262939453125 275.1214599609375 -576.20849609375 275.1163330078125 -576.5717163085938 275.1048278808594 L -577.5653686523438 275.0732727050781 L -577.5396728515625 274.0794677734375 C -577.51171875 272.9989013671875 -577.3175048828125 271.8730163574219 -576.9099731445313 270.4288024902344 C -576.6366577148438 269.4607238769531 -576.3031005859375 268.4681396484375 -575.8970336914063 267.4158020019531 C -576.1685180664063 267.1459045410156 -576.3473510742188 266.7887573242188 -576.3800048828125 266.3919677734375 L -576.382080078125 266.3666076660156 L -576.3828735351563 266.3411254882813 C -576.3977661132813 265.862548828125 -576.3946533203125 265.3852233886719 -576.3916015625 264.923583984375 C -576.3903198242188 264.7213439941406 -576.3889770507813 264.5191345214844 -576.38916015625 264.3169860839844 C -576.3970947265625 263.8886413574219 -576.22607421875 263.4624328613281 -575.9181518554688 263.1448669433594 C -575.5997924804688 262.8164672851563 -575.1619873046875 262.6280822753906 -574.7171630859375 262.6280822753906 Z" stroke="none" fill="#3d3d3d"/>
      </g>
      <g id="Path_8" data-name="Path 8" transform="translate(11121.467 1618.62)" fill="#fff">
        <path d="M -526.26953125 324.5987854003906 L -526.2813720703125 324.5987854003906 L -526.7649536132813 324.5987854003906 L -526.7884521484375 324.5987854003906 L -526.8118896484375 324.5965881347656 C -527.6371459960938 324.5187683105469 -528.3743286132813 324.3156433105469 -529.0029296875 323.9928588867188 C -530.5416870117188 323.2332458496094 -531.6935424804688 321.7149658203125 -532.010498046875 320.0286560058594 C -532.46240234375 317.8658752441406 -531.488525390625 315.4994812011719 -529.640625 314.2706909179688 C -528.7200927734375 313.6402587890625 -527.5921020507813 313.2931518554688 -526.4640502929688 313.2931518554688 C -526.1348266601563 313.2931518554688 -525.8062133789063 313.3226623535156 -525.4871826171875 313.3809204101563 C -524.1769409179688 313.6068420410156 -522.9429931640625 314.3267211914063 -522.1012573242188 315.3563842773438 C -521.11572265625 316.5442199707031 -520.652587890625 318.1630249023438 -520.8643798828125 319.6845703125 C -521.0426025390625 321.0852661132813 -521.7747192382813 322.4054870605469 -522.873291015625 323.3070983886719 C -523.7994384765625 324.0792541503906 -525.00244140625 324.5386352539063 -526.2576904296875 324.5982360839844 L -526.26953125 324.5987854003906 Z M -526.4791870117188 317.4044494628906 C -526.62353515625 317.4044494628906 -526.7637939453125 317.4267883300781 -526.8961791992188 317.4708557128906 L -526.9041748046875 317.4735107421875 L -526.9122924804688 317.4759216308594 C -527.34619140625 317.6042175292969 -527.7199096679688 317.9448547363281 -527.8875732421875 318.3649291992188 L -527.8889770507813 318.3685913085938 L -527.8905029296875 318.3722534179688 C -528.1170654296875 318.914794921875 -527.9797973632813 319.6053161621094 -527.564208984375 320.0142211914063 L -527.5582275390625 320.0201110839844 L -527.5524291992188 320.0262145996094 C -527.2821655273438 320.3105773925781 -526.8720092773438 320.4803466796875 -526.4552612304688 320.4803771972656 C -526.4552001953125 320.4803771972656 -526.4551391601563 320.4803771972656 -526.4551391601563 320.4803771972656 C -526.290771484375 320.4803771972656 -526.1318969726563 320.4545288085938 -525.9829711914063 320.403564453125 L -525.9765014648438 320.4013366699219 L -525.969970703125 320.3993225097656 C -525.2412109375 320.1719360351563 -524.7677001953125 319.3011779785156 -524.9765014648438 318.5723876953125 L -524.980224609375 318.5594177246094 L -524.9832153320313 318.5462646484375 C -525.1298217773438 317.906005859375 -525.7869262695313 317.4044494628906 -526.4791870117188 317.4044494628906 Z" stroke="none"/>
        <path d="M -526.4640502929688 313.7931518554688 C -527.4890747070313 313.7931518554688 -528.5146484375 314.1048583984375 -529.360595703125 314.6849365234375 C -531.0390014648438 315.7991333007813 -531.9346923828125 317.9569091796875 -531.5200805664063 319.9310913085938 C -531.2317504882813 321.474853515625 -530.1864624023438 322.8524780273438 -528.7781372070313 323.5462341308594 C -528.1533203125 323.8677978515625 -527.461181640625 324.0331420898438 -526.7649536132813 324.0987854003906 L -526.2813720703125 324.0987854003906 C -525.1604614257813 324.0455932617188 -524.0545654296875 323.6409606933594 -523.1904907226563 322.9205932617188 C -522.1942749023438 322.1029968261719 -521.5220947265625 320.8982238769531 -521.3600463867188 319.6186828613281 C -521.164794921875 318.2228088378906 -521.5894165039063 316.7563171386719 -522.4884033203125 315.6728210449219 C -523.2586059570313 314.7306213378906 -524.3753051757813 314.0792236328125 -525.5751342773438 313.8731384277344 C -525.8684692382813 313.8194580078125 -526.1661987304688 313.7931518554688 -526.4640502929688 313.7931518554688 M -526.4552612304688 320.9803771972656 C -526.9968872070313 320.9803771972656 -527.5396118164063 320.7655029296875 -527.9148559570313 320.3706359863281 C -528.480712890625 319.8139343261719 -528.6568603515625 318.9099426269531 -528.3519287109375 318.1795959472656 C -528.1267700195313 317.6154479980469 -527.6357421875 317.1684265136719 -527.0540771484375 316.9964294433594 C -526.8660888671875 316.9338684082031 -526.6723022460938 316.9044494628906 -526.4791870117188 316.9044494628906 C -525.582275390625 316.9045104980469 -524.700927734375 317.5390930175781 -524.495849609375 318.4346923828125 C -524.2099609375 319.4325561523438 -524.8331298828125 320.5683898925781 -525.821044921875 320.8766174316406 C -526.0253295898438 320.946533203125 -526.2401733398438 320.9803771972656 -526.4552612304688 320.9803771972656 M -526.4640502929688 312.7931518554688 C -526.1058959960938 312.7931518554688 -525.7481689453125 312.8251953125 -525.400634765625 312.8884887695313 C -523.9749755859375 313.1347045898438 -522.6325073242188 313.9176940917969 -521.716064453125 315.03759765625 C -520.6425170898438 316.3334655761719 -520.1390991210938 318.0944519042969 -520.3687744140625 319.7505493164063 C -520.5634155273438 321.2742614746094 -521.3592529296875 322.7100219726563 -522.5531005859375 323.6911315917969 C -523.56494140625 324.5335388183594 -524.8720092773438 325.0330200195313 -526.2339477539063 325.09765625 L -526.2576293945313 325.0987854003906 L -526.2813720703125 325.0987854003906 L -526.7649536132813 325.0987854003906 L -526.81201171875 325.0987854003906 L -526.8588256835938 325.0943603515625 C -527.7461547851563 325.0107116699219 -528.5430908203125 324.7903747558594 -529.2277221679688 324.4394836425781 C -530.9016723632813 323.6117553710938 -532.1546630859375 321.9603881835938 -532.5010375976563 320.1256103515625 C -532.9908447265625 317.7699890136719 -531.9303588867188 315.1942138671875 -529.91943359375 313.8556213378906 C -528.9171752929688 313.1704406738281 -527.6903686523438 312.7931518554688 -526.4640502929688 312.7931518554688 Z M -526.4552612304688 319.9803771972656 C -526.3460083007813 319.9803771972656 -526.2415771484375 319.9635925292969 -526.1448364257813 319.9304809570313 L -526.1318969726563 319.9260559082031 L -526.118896484375 319.9219970703125 C -525.642822265625 319.7734680175781 -525.3212890625 319.1845092773438 -525.4571533203125 318.7101135253906 L -525.464599609375 318.6841735839844 L -525.4706420898438 318.6578674316406 C -525.5657348632813 318.2424621582031 -526.0181884765625 317.9044799804688 -526.4791870117188 317.9044494628906 C -526.5697631835938 317.9044494628906 -526.6569213867188 317.9181823730469 -526.73828125 317.9452514648438 L -526.7543334960938 317.9505920410156 L -526.7705078125 317.9553833007813 C -527.0609130859375 318.041259765625 -527.3109741210938 318.2691955566406 -527.4231567382813 318.55029296875 L -527.4260864257813 318.5576171875 L -527.4291381835938 318.5648803710938 C -527.5777587890625 318.9208068847656 -527.4850463867188 319.3906555175781 -527.2135620117188 319.6577758789063 L -527.2015380859375 319.6695861816406 L -527.1900024414063 319.6817626953125 C -527.0122680664063 319.8687438964844 -526.7376098632813 319.9803771972656 -526.4552612304688 319.9803771972656 Z" stroke="none" fill="#3d3d3d"/>
      </g>
      <g id="Path_9" data-name="Path 9" transform="translate(10838.841 1618.616)" fill="#fff" stroke-linecap="square">
        <path d="M -217.9723510742188 324.6029663085938 L -217.9881591796875 324.6029663085938 L -218.5888824462891 324.6029663085938 L -218.61767578125 324.6029663085938 L -218.6462860107422 324.5996704101563 C -219.5542297363281 324.4947204589844 -220.3113098144531 324.2645568847656 -220.9607086181641 323.89599609375 C -222.1826324462891 323.2302856445313 -223.1365051269531 322.093505859375 -223.5786590576172 320.77587890625 C -224.0731506347656 319.3596496582031 -223.9667358398438 317.774169921875 -223.2865600585938 316.4248962402344 C -222.7941589355469 315.4237670898438 -221.9891357421875 314.5751647949219 -221.0192718505859 314.0347900390625 C -220.1741943359375 313.5525817871094 -219.2066650390625 313.2976989746094 -218.2210845947266 313.2976989746094 C -217.7135620117188 313.2976989746094 -217.2138519287109 313.3660278320313 -216.7357940673828 313.5007934570313 C -215.3608093261719 313.873779296875 -214.1475677490234 314.7850341796875 -213.4119110107422 315.9996032714844 C -212.7574310302734 317.0624084472656 -212.4743194580078 318.3370361328125 -212.6166229248047 319.5855712890625 C -212.7754058837891 321.0100708007813 -213.497314453125 322.3558349609375 -214.5971069335938 323.276611328125 C -215.5112609863281 324.0514221191406 -216.7051696777344 324.5227966308594 -217.9565887451172 324.6019592285156 L -217.9723510742188 324.6029663085938 Z M -218.2437133789063 317.4110412597656 C -218.3936920166016 317.4110412597656 -218.5387725830078 317.4344787597656 -218.6749267578125 317.4806823730469 L -218.6865234375 317.484619140625 L -218.6982727050781 317.4879760742188 C -219.3529357910156 317.675048828125 -219.8302154541016 318.3858947753906 -219.76220703125 319.0725402832031 L -219.7615966796875 319.0787658691406 L -219.7611389160156 319.0849914550781 C -219.716796875 319.6848449707031 -219.2658843994141 320.2440490722656 -218.6889343261719 320.4145812988281 L -218.6825714111328 320.4164733886719 L -218.6762847900391 320.4184875488281 C -218.5402984619141 320.462646484375 -218.3954772949219 320.4850463867188 -218.2458343505859 320.4850463867188 C -217.7377014160156 320.4850769042969 -217.2376556396484 320.2255554199219 -216.9718780517578 319.8238830566406 L -216.9690246582031 319.8195495605469 L -216.966064453125 319.8152770996094 C -216.6660003662109 319.3816223144531 -216.6109924316406 318.8010864257813 -216.8259429931641 318.3363037109375 L -216.8302612304688 318.3269348144531 L -216.8342132568359 318.3174133300781 C -217.0547637939453 317.7837524414063 -217.6343841552734 317.4110412597656 -218.2437133789063 317.4110412597656 Z" stroke="none"/>
        <path d="M -218.2210693359375 313.7976989746094 C -219.1105194091797 313.7976989746094 -220.0009307861328 314.0287475585938 -220.7741088867188 314.4705810546875 C -221.6623077392578 314.9649353027344 -222.3910064697266 315.7360229492188 -222.8388366699219 316.6474914550781 C -223.4528656005859 317.8638916015625 -223.5558929443359 319.3270568847656 -223.1055450439453 320.6141052246094 C -222.7025756835938 321.8172302246094 -221.8318176269531 322.8533325195313 -220.7176055908203 323.4590454101563 C -220.0661926269531 323.82958984375 -219.3292083740234 324.0173950195313 -218.5888824462891 324.1029663085938 L -217.9881591796875 324.1029663085938 C -216.8714599609375 324.0323181152344 -215.7738647460938 323.6185607910156 -214.9180755615234 322.8932189941406 C -213.9176940917969 322.0556945800781 -213.2579803466797 320.8259582519531 -213.1134033203125 319.5289611816406 C -212.9846038818359 318.3989562988281 -213.2430267333984 317.2274169921875 -213.8395843505859 316.2586364746094 C -214.5109405517578 315.1502380371094 -215.621826171875 314.321044921875 -216.8714599609375 313.9820251464844 C -217.3106536865234 313.8582153320313 -217.7656707763672 313.7976989746094 -218.2210693359375 313.7976989746094 M -218.2458648681641 320.9850463867188 C -218.4434356689453 320.9850463867188 -218.6410675048828 320.9556274414063 -218.8306732177734 320.8940734863281 C -219.6092071533203 320.6639404296875 -220.1999664306641 319.9310913085938 -220.2597808837891 319.121826171875 C -220.3511962890625 318.19873046875 -219.7313385009766 317.26318359375 -218.8356628417969 317.0072326660156 C -218.6432189941406 316.94189453125 -218.4433441162109 316.9110412597656 -218.2437133789063 316.9110412597656 C -217.4581604003906 316.9110412597656 -216.6768646240234 317.3890686035156 -216.3721160888672 318.1264343261719 C -216.0804748535156 318.757080078125 -216.1610565185547 319.5306091308594 -216.5549011230469 320.0997924804688 C -216.9227600097656 320.6557312011719 -217.5845794677734 320.9850463867188 -218.2458648681641 320.9850463867188 M -218.2210693359375 312.7976989746094 C -217.6694183349609 312.7976989746094 -217.1257476806641 312.8718566894531 -216.6050262451172 313.0181579589844 C -215.1056976318359 313.4262390136719 -213.7870025634766 314.4171142578125 -212.9861145019531 315.7374877929688 C -212.272705078125 316.8976440429688 -211.9650573730469 318.2842102050781 -212.1198425292969 319.6422119140625 C -212.2925415039063 321.1916198730469 -213.0782165527344 322.6565551757813 -214.2751007080078 323.6591186523438 C -215.2725677490234 324.5031127929688 -216.5686340332031 325.0151672363281 -217.9250183105469 325.1009826660156 L -217.9565582275391 325.1029663085938 L -217.9881591796875 325.1029663085938 L -218.5888824462891 325.1029663085938 L -218.646484375 325.1029663085938 L -218.7037048339844 325.0963439941406 C -219.6777954101563 324.9837341308594 -220.4956512451172 324.7340393066406 -221.2035980224609 324.3330688476563 C -222.5322723388672 323.6079406738281 -223.5696868896484 322.371337890625 -224.0516052246094 320.9381713867188 C -224.5892944335938 319.3959655761719 -224.4736328125 317.67041015625 -223.7341156005859 316.2019653320313 C -223.1976165771484 315.1124267578125 -222.3211212158203 314.1884765625 -221.2652740478516 313.5994873046875 C -220.3452758789063 313.0749816894531 -219.2927093505859 312.7976989746094 -218.2210693359375 312.7976989746094 Z M -218.2458648681641 319.9850463867188 C -217.90625 319.9850463867188 -217.5618438720703 319.8093872070313 -217.3888702392578 319.5479736328125 L -217.3831329345703 319.539306640625 L -217.3772277832031 319.5307922363281 C -217.1790313720703 319.2443542480469 -217.1398620605469 318.8486633300781 -217.2797698974609 318.5461730957031 L -217.2884216308594 318.5274353027344 L -217.2962951660156 318.5083923339844 C -217.4370422363281 318.1678466796875 -217.8443450927734 317.9110412597656 -218.2437133789063 317.9110412597656 C -218.3389282226563 317.9110412597656 -218.429931640625 317.925537109375 -218.5142059326172 317.9541625976563 L -218.5373687744141 317.9620056152344 L -218.5608978271484 317.96875 C -218.9869232177734 318.0904846191406 -219.3092041015625 318.5733947753906 -219.2646484375 319.0232849121094 L -219.2634124755859 319.0356750488281 L -219.2624969482422 319.0481262207031 C -219.2333984375 319.4418334960938 -218.9258880615234 319.8231506347656 -218.5471954345703 319.9350891113281 L -218.5345001220703 319.9388427734375 L -218.5218963623047 319.9429321289063 C -218.4358062744141 319.9708862304688 -218.3429412841797 319.9850463867188 -218.2458648681641 319.9850463867188 Z" stroke="none" fill="#3d3d3d"/>
      </g>
      <g id="Path_2" data-name="Path 2" transform="translate(10985.811 1932.174)" fill="#fff">
        <path d="M -379.7738647460938 -19.89494132995605 C -380.6444091796875 -19.89494132995605 -381.5121154785156 -20.15698623657227 -382.217529296875 -20.63281440734863 C -383.3990478515625 -21.41021728515625 -384.1466979980469 -22.7673511505127 -384.169677734375 -24.17596435546875 C -384.2068176269531 -25.39916610717773 -383.6958312988281 -26.62926483154297 -382.8020935058594 -27.46777534484863 C -382.0703735351563 -28.16802215576172 -381.0906066894531 -28.59592056274414 -380.04296875 -28.67266082763672 L -380.0247192382813 -28.67400169372559 L -380.0064392089844 -28.67400169372559 L -379.5253601074219 -28.67400169372559 L -379.5078430175781 -28.67400169372559 L -379.4903869628906 -28.67277145385742 C -377.8547668457031 -28.55806159973145 -376.3904418945313 -27.5245475769043 -375.7587890625 -26.03957366943359 C -375.2139282226563 -24.80811882019043 -375.2892761230469 -23.30919075012207 -375.9556884765625 -22.12652015686035 C -376.5053100585938 -21.1525707244873 -377.4234008789063 -20.41228485107422 -378.4750366210938 -20.09467506408691 C -378.8904724121094 -19.96213912963867 -379.3274230957031 -19.89494132995605 -379.7738647460938 -19.89494132995605 Z" stroke="none"/>
        <path d="M -380.0064392089844 -28.17400169372559 C -380.9137878417969 -28.10753059387207 -381.7994995117188 -27.73613166809082 -382.4583740234375 -27.10466003417969 C -383.2510375976563 -26.36185073852539 -383.7038879394531 -25.27340126037598 -383.6697998046875 -24.18744087219238 C -383.6506652832031 -22.94278144836426 -382.9801635742188 -21.73219108581543 -381.9407348632813 -21.0492115020752 C -381.3052978515625 -20.61971473693848 -380.5392761230469 -20.39494514465332 -379.7738647460938 -20.39494514465332 C -379.3843383789063 -20.39494514465332 -378.9949340820313 -20.45318031311035 -378.623046875 -20.57228088378906 C -377.6841430664063 -20.85479164123535 -376.8723754882813 -21.51949119567871 -376.3912963867188 -22.37197113037109 C -375.8013916015625 -23.41888046264648 -375.7290954589844 -24.73997116088867 -376.2176208496094 -25.84089088439941 C -376.7760009765625 -27.15700149536133 -378.1037292480469 -28.07429122924805 -379.5253601074219 -28.17400169372559 L -380.0064392089844 -28.17400169372559 M -380.0430297851563 -29.17400169372559 L -380.0064392089844 -29.17400169372559 L -379.5253601074219 -29.17400169372559 L -379.4903259277344 -29.17400169372559 L -379.4553833007813 -29.17155075073242 C -377.6357116699219 -29.04392433166504 -376.0057983398438 -27.89343070983887 -375.3004455566406 -26.23945999145508 C -374.6942443847656 -24.86700057983398 -374.7781982421875 -23.19771766662598 -375.5200805664063 -21.88107109069824 C -376.1318664550781 -20.79695320129395 -377.1542358398438 -19.97247695922852 -378.3263549804688 -19.61728286743164 C -378.7900085449219 -19.46974182128906 -379.2769470214844 -19.39494132995605 -379.7738647460938 -19.39494132995605 C -380.7422790527344 -19.39494132995605 -381.70849609375 -19.68688011169434 -382.4953918457031 -20.21710777282715 C -383.8101806640625 -21.08373069763184 -384.6425476074219 -22.59473419189453 -384.6695556640625 -24.16371536254883 C -384.7099914550781 -25.52606582641602 -384.1410217285156 -26.89586067199707 -383.1464538574219 -27.83030700683594 C -382.3311157226563 -28.60994148254395 -381.2421264648438 -29.08615684509277 -380.0794982910156 -29.17133140563965 L -380.0430297851563 -29.17400169372559 Z" stroke="none" fill="#3d3d3d"/>
      </g>
    </g>
  </g>
</svg>
